<?xml version="1.0" encoding="utf-8"?>
<!-- Generator: Adobe Illustrator 22.0.1, SVG Export Plug-In . SVG Version: 6.00 Build 0)  -->
<svg version="1.1" id="Layer_1" xmlns="http://www.w3.org/2000/svg" xmlns:xlink="http://www.w3.org/1999/xlink" x="0px" y="0px"
	 viewBox="0 0 107.4 107.4" style="enable-background:new 0 0 107.4 107.4;" xml:space="preserve">
<style type="text/css">
	.st0{fill:#FFFFFF;}
</style>
<g>
	<g>
		<path class="st0" d="M53.7,107.4C24.1,107.4,0,83.3,0,53.7S24.1,0,53.7,0s53.7,24.1,53.7,53.7S83.3,107.4,53.7,107.4z M53.7,2.4
			c-28.3,0-51.3,23-51.3,51.3s23,51.3,51.3,51.3S105,82,105,53.7S82,2.4,53.7,2.4z"/>
	</g>
	<g>
		<path class="st0" d="M41.2,78.4c-0.2,0-0.4,0-0.6-0.1c-0.4-0.2-0.6-0.6-0.6-1.1V30.5c0-0.5,0.3-0.9,0.7-1.1
			c0.4-0.2,0.9-0.2,1.3,0.1l35,24.1c0.3,0.2,0.5,0.6,0.5,1s-0.2,0.8-0.6,1l-35,22.6C41.6,78.4,41.4,78.4,41.2,78.4z M42.4,32.9V75
			L74,54.6L42.4,32.9z"/>
	</g>
</g>
</svg>
