<?xml version="1.0" encoding="utf-8"?>
<!-- Generator: Adobe Illustrator 22.0.1, SVG Export Plug-In . SVG Version: 6.00 Build 0)  -->
<svg version="1.1" id="Layer_1" xmlns="http://www.w3.org/2000/svg" xmlns:xlink="http://www.w3.org/1999/xlink" x="0px" y="0px"
	 viewBox="0 0 20.6 18" style="enable-background:new 0 0 20.6 18;" xml:space="preserve">
<style type="text/css">
	.st0{fill:#ED4848;}
</style>
<path class="st0" d="M20.5,4.3c-1.2,6.5-7.6,12-9.5,13.2C9,18.8,7.3,17,6.6,15.7C5.9,14.2,3.7,6,3.1,5.3C2.6,4.6,0.8,6,0.8,6L0,4.9
	c0,0,3.5-4.2,6.2-4.7C9-0.4,9,4.5,9.7,7.2c0.7,2.6,1.1,4.1,1.7,4.1c0.6,0,1.7-1.5,2.9-3.7c1.2-2.3-0.1-4.2-2.4-2.8
	C12.8-0.8,21.6-2.2,20.5,4.3L20.5,4.3z"/>
</svg>
