<?xml version="1.0" encoding="utf-8"?>
<!-- Generator: Adobe Illustrator 22.0.1, SVG Export Plug-In . SVG Version: 6.00 Build 0)  -->
<svg version="1.1" id="Layer_1" xmlns="http://www.w3.org/2000/svg" xmlns:xlink="http://www.w3.org/1999/xlink" x="0px" y="0px"
	 viewBox="0 0 19.6 19.6" style="enable-background:new 0 0 19.6 19.6;" xml:space="preserve">
<style type="text/css">
	.st0{fill:#ED4848;}
</style>
<g>
	<path class="st0" d="M14.7,0H5C2.2,0,0,2.2,0,5v9.7c0,2.7,2.2,5,5,5h9.7c2.7,0,5-2.2,5-5V5C19.6,2.2,17.4,0,14.7,0z M17.5,14.7
		c0,1.6-1.3,2.8-2.8,2.8H5c-1.6,0-2.8-1.3-2.8-2.8V5c0-1.6,1.3-2.8,2.8-2.8h9.7c1.6,0,2.8,1.3,2.8,2.8V14.7z"/>
	<path class="st0" d="M9.8,4.8C7,4.8,4.8,7,4.8,9.8c0,2.8,2.3,5.1,5.1,5.1s5.1-2.3,5.1-5.1C14.9,7,12.6,4.8,9.8,4.8z M9.8,12.7
		c-1.6,0-2.9-1.3-2.9-2.9c0-1.6,1.3-2.9,2.9-2.9c1.6,0,2.9,1.3,2.9,2.9C12.7,11.4,11.4,12.7,9.8,12.7z"/>
	<path class="st0" d="M15,3.4c-0.7,0-1.2,0.5-1.2,1.2c0,0.7,0.5,1.2,1.2,1.2c0.7,0,1.2-0.5,1.2-1.2C16.2,4,15.7,3.4,15,3.4z"/>
</g>
</svg>
