<?xml version="1.0" encoding="utf-8"?>
<!-- Generator: Adobe Illustrator 22.0.1, SVG Export Plug-In . SVG Version: 6.00 Build 0)  -->
<svg version="1.1" id="Layer_1" xmlns="http://www.w3.org/2000/svg" xmlns:xlink="http://www.w3.org/1999/xlink" x="0px" y="0px"
	 viewBox="0 0 23.8 23.8" style="enable-background:new 0 0 23.8 23.8;" xml:space="preserve">
<style type="text/css">
	.st0{opacity:0.4;fill:#101014;}
	.st1{fill:#FFFFFF;}
</style>
<g>
	<ellipse transform="matrix(0.9239 -0.3827 0.3827 0.9239 -3.6458 5.4564)" class="st0" cx="11.9" cy="11.9" rx="11.9" ry="11.9"/>
	<path class="st1" d="M16.2,9.7c0,2.3-1.9,4.2-4.2,4.2c-2.3,0-4.2-1.9-4.2-4.2c0-2.3,1.9-4.2,4.2-4.2C14.3,5.6,16.2,7.4,16.2,9.7z"
		/>
	<path class="st1" d="M11.9,22.2c2.5,0,5-0.9,6.9-2.6c-1.5-2.3-4-3.7-6.8-3.7c-2.8,0-5.4,1.5-6.8,3.8C7,21.3,9.4,22.2,11.9,22.2z"/>
</g>
</svg>
