<?xml version="1.0" encoding="utf-8"?>
<!-- Generator: Adobe Illustrator 22.0.1, SVG Export Plug-In . SVG Version: 6.00 Build 0)  -->
<svg version="1.1" id="Layer_1" xmlns="http://www.w3.org/2000/svg" xmlns:xlink="http://www.w3.org/1999/xlink" x="0px" y="0px"
	 viewBox="0 0 70.3 23.6" style="enable-background:new 0 0 70.3 23.6;" xml:space="preserve">
<g>
	<path d="M0.1,9.2C0,9.4,0.2,9.3,0.1,9.2L0.1,9.2z"/>
	<path d="M0.2,19.1c0,0.1,0,0.1,0,0.2c0,0,0.1,0,0.1-0.1C0.2,19.2,0.2,19.1,0.2,19.1z"/>
	<path d="M0.2,18.6c0,0.2-0.1,0-0.1,0.2C0.3,18.9,0.3,18.6,0.2,18.6z"/>
	<path d="M0.2,14.3C0.2,14.3,0.2,14.3,0.2,14.3c-0.1,0-0.1,0.1-0.1,0.1c0,0,0,0,0.1,0C0.2,14.3,0.2,14.3,0.2,14.3z"/>
	<path d="M0.2,12.9c0,0.1,0,0.1,0,0.2C0.3,13.1,0.3,12.9,0.2,12.9z"/>
	<path d="M0.4,19.1c0-0.2,0-0.1,0-0.3C0.2,18.7,0.2,19.1,0.4,19.1z"/>
	<path d="M0.3,12.9c0,0.1,0,0.1,0,0.2c0.1,0,0.1,0,0.1-0.1C0.4,13,0.4,12.9,0.3,12.9z"/>
	<path d="M0.3,10.9c0.1,0,0.1-0.1,0.1-0.2C0.3,10.7,0.3,10.8,0.3,10.9z"/>
	<path d="M0.5,9.5c0.2-0.1,0-0.4-0.1-0.2C0.4,9.3,0.4,9.5,0.5,9.5z"/>
	<path d="M0.5,4.5C0.4,4.8,0.6,4.7,0.5,4.5L0.5,4.5z"/>
	<path d="M0.5,19.7c0.1,0,0.1,0,0.1-0.1C0.5,19.6,0.5,19.7,0.5,19.7z"/>
	<path d="M0.5,7.1C0.5,7.1,0.5,7,0.5,7.1c0-0.1,0-0.1,0-0.2C0.5,6.8,0.5,7.1,0.5,7.1z"/>
	<path d="M0.8,9.4c0,0-0.1,0-0.1,0c0,0.1,0.1,0.2,0.1,0.2C0.8,9.5,0.8,9.4,0.8,9.4z"/>
	<path d="M0.7,11.3C0.7,11.3,0.8,11.3,0.7,11.3c0.1,0.1,0.1,0.1,0.1,0.1C0.9,11.2,0.7,11.2,0.7,11.3z"/>
	<path d="M0.8,7.1c0-0.1,0-0.2-0.1-0.3C0.7,7,0.7,7.1,0.8,7.1z"/>
	<path d="M0.9,10.6c0-0.1-0.2,0-0.1,0.1C0.9,10.8,0.9,10.7,0.9,10.6z"/>
	<path d="M0.9,13.7c0,0,0,0.1,0,0.2C1,13.9,1,13.7,0.9,13.7z"/>
	<path d="M0.9,9.5c-0.1,0-0.1,0-0.1-0.1c0,0,0,0.1,0,0.1C0.9,9.6,0.9,9.6,0.9,9.5z"/>
	<path d="M1,8.6C1.1,8.8,1.1,8.4,1,8.6L1,8.6z"/>
	<path d="M1.1,14.2c0,0.1,0,0.1,0,0.2c0.1,0,0.1,0,0.1,0.1C1.1,14.3,1.1,14.2,1.1,14.2z"/>
	<path d="M1.1,8.8C1.1,8.8,1.1,8.8,1.1,8.8C1.1,8.8,1.1,8.9,1.1,8.8c0.1,0,0.1-0.1,0-0.2C1.1,8.7,1,8.8,1.1,8.8z"/>
	<path d="M1.1,12.9C1.1,12.9,1.1,12.9,1.1,12.9c0.1,0,0.1,0,0.1-0.1C1.1,12.8,1.1,12.8,1.1,12.9z"/>
	<path d="M1.2,13.9C1.3,13.7,1,13.7,1.2,13.9L1.2,13.9z"/>
	<path d="M1.2,16.3c0,0.1,0,0.1,0,0.1c0,0,0,0,0.1,0.1C1.2,16.4,1.3,16.4,1.2,16.3C1.2,16.3,1.2,16.3,1.2,16.3z"/>
	<path d="M1.4,9.4c0-0.1-0.1-0.1-0.1-0.2C1.2,9.3,1.3,9.4,1.4,9.4z"/>
	<path d="M1.3,20.4C1.4,20.5,1.4,20.2,1.3,20.4L1.3,20.4z"/>
	<path d="M1.4,6.8c0-0.1,0-0.1-0.1-0.2C1.3,6.7,1.3,6.8,1.4,6.8z"/>
	<path d="M1.3,8.1C1.3,8.1,1.4,8.1,1.3,8.1C1.4,8,1.4,8,1.4,8c0,0,0,0-0.1,0C1.3,8,1.3,8,1.3,8.1z"/>
	<path d="M1.5,12.7c-0.1,0,0-0.2-0.1-0.2C1.3,12.7,1.5,12.9,1.5,12.7z"/>
	<path d="M1.5,7C1.4,7,1.4,7,1.4,7c0,0,0,0.1,0,0.1C1.4,7.1,1.5,7.1,1.5,7z"/>
	<path d="M1.4,17.6c0,0.1,0,0.2,0.1,0.2C1.5,17.7,1.4,17.7,1.4,17.6z"/>
	<path d="M1.5,15.4c0-0.1,0.1,0,0.1-0.1C1.5,15.1,1.4,15.3,1.5,15.4z"/>
	<path d="M1.5,3.7c0,0.1,0,0.1,0,0.2C1.5,3.9,1.5,3.7,1.5,3.7z"/>
	<path d="M1.5,8.1c0,0.1-0.1,0.2,0,0.2C1.5,8.3,1.6,8.1,1.5,8.1z"/>
	<path d="M1.5,7c0,0.1-0.1,0.1-0.1,0.2C1.5,7.2,1.6,7.1,1.5,7z"/>
	<path d="M1.5,6.7C1.8,6.7,1.6,6.4,1.5,6.7L1.5,6.7z"/>
	<path d="M1.7,6.7c0.1,0,0.2,0,0.2,0.1C1.9,6.6,1.7,6.5,1.7,6.7z"/>
	<path d="M1.7,3.6C2,3.6,1.8,3.3,1.7,3.6L1.7,3.6z"/>
	<path d="M1.8,6.2C1.7,6.4,1.9,6.3,1.8,6.2L1.8,6.2z"/>
	<path d="M1.8,7.4C1.9,7.7,1.9,7.2,1.8,7.4L1.8,7.4z"/>
	<path d="M2,19.9c-0.1,0-0.1,0-0.1,0.1C1.9,20,2,20,2,19.9z"/>
	<path d="M1.9,6.8C1.9,7,2,7,2,6.9C2,6.9,2,6.8,1.9,6.8z"/>
	<path d="M1.9,20.4c0.1,0,0.1,0,0.1-0.2C2,20.2,1.9,20.3,1.9,20.4z"/>
	<path d="M2,8C2,8,1.9,8.1,1.9,8.1C2,8.1,2,8.1,2,8z"/>
	<path d="M2,7.2C2,7.2,1.9,7.2,2,7.2c-0.1,0-0.1,0.1-0.1,0.1c0,0,0,0,0.1,0C2,7.3,2,7.3,2,7.2z"/>
	<path d="M2,1.6C2.2,1.6,2,1.3,2,1.6L2,1.6z"/>
	<path d="M2.1,21.4C2.3,21.2,2,21.2,2.1,21.4L2.1,21.4z"/>
	<path d="M2.1,19.2c0.1,0,0,0.1,0.1,0.1C2.3,19.2,2.2,19.1,2.1,19.2z"/>
	<path d="M2.3,1.2c0-0.1,0-0.3-0.1-0.3C2.2,1.1,2.2,1.2,2.3,1.2z"/>
	<path d="M2.4,2C2.3,2,2.3,2,2.4,2c-0.1,0-0.1,0.1-0.1,0.1c0,0,0.1,0,0.1,0C2.4,2.1,2.4,2.1,2.4,2z"/>
	<path d="M2.4,5.8C2.6,5.5,2.3,5.6,2.4,5.8L2.4,5.8z"/>
	<path d="M2.4,2.7C2.4,3.1,2.5,2.9,2.4,2.7L2.4,2.7z"/>
	<path d="M2.6,2.5c0-0.1,0-0.1,0-0.1C2.6,2.3,2.5,2.5,2.6,2.5z"/>
	<path d="M2.9,1C2.9,1,2.8,1,2.9,1C2.8,1,2.8,1.1,2.8,1.1c0,0,0,0,0.1,0C2.9,1.1,2.9,1,2.9,1z"/>
	<path d="M3.1,19.4C3.1,19.4,3.1,19.3,3.1,19.4c0-0.1,0-0.1,0-0.2C3.1,19.2,3,19.4,3.1,19.4z"/>
	<path d="M3.3,21.2C3.2,21.4,3.4,21.4,3.3,21.2L3.3,21.2z"/>
	<path d="M3.6,20.4c0,0,0.1,0,0.1,0C3.7,20.2,3.5,20.2,3.6,20.4z"/>
	<path d="M4.1,20.7C4.2,20.6,4,20.6,4.1,20.7L4.1,20.7z"/>
	<path d="M4.1,19.6C4,19.9,4.2,19.8,4.1,19.6L4.1,19.6z"/>
	<path d="M5,22.3c0,0,0.1,0.1,0.1,0C5.1,22.3,5,22.2,5,22.3z"/>
	<path d="M5.3,0.6c0-0.1-0.1-0.2-0.1-0.1C5.2,0.5,5.2,0.6,5.3,0.6z"/>
	<path d="M5.4,0.9C5.4,0.9,5.3,0.9,5.4,0.9c-0.1,0-0.1,0-0.1,0.1C5.3,1,5.4,1,5.4,0.9z"/>
	<path d="M5.4,1.7c0.1,0.1,0.1,0.1,0.1-0.1c-0.1,0-0.1,0-0.1-0.1C5.4,1.6,5.4,1.7,5.4,1.7z"/>
	<path d="M5.5,21.3C5.5,21.3,5.6,21.3,5.5,21.3c0.1-0.1,0.1-0.1,0.1-0.2c0,0,0,0-0.1,0C5.5,21.2,5.5,21.2,5.5,21.3z"/>
	<path d="M5.8,1.5c0-0.1,0-0.1-0.1-0.2C5.7,1.4,5.7,1.5,5.8,1.5z"/>
	<path d="M5.8,2c0,0.1,0,0.2,0,0.2C5.9,2.2,5.9,2,5.8,2z"/>
	<path d="M5.8,20.4c0,0.2,0.3,0.1,0.1,0C5.9,20.5,5.8,20.4,5.8,20.4z"/>
	<path d="M6,2.2C5.8,2,5.9,2.4,6,2.2L6,2.2z"/>
	<path d="M6.1,20.4c0,0,0,0.1,0,0.2C6.2,20.7,6.1,20.3,6.1,20.4z"/>
	<path d="M6.7,1.7c-0.1,0-0.1,0-0.1,0.1C6.7,1.8,6.7,1.7,6.7,1.7z"/>
	<path d="M6.9,0.7c0,0.1-0.1,0.1-0.1,0.2C6.9,0.9,7,0.7,6.9,0.7z"/>
	<path d="M7.5,22.3c0,0.1,0,0.1,0.1,0.2C7.6,22.3,7.5,22.3,7.5,22.3z"/>
	<path d="M8.6,22.9c-0.1,0-0.1-0.1-0.1-0.1C8.4,22.9,8.6,23,8.6,22.9z"/>
	<path d="M8.6,22.3c0.1-0.1-0.1-0.2-0.1-0.1C8.5,22.3,8.5,22.3,8.6,22.3C8.6,22.3,8.6,22.3,8.6,22.3z"/>
	<path d="M8.6,22.6C8.6,22.6,8.6,22.6,8.6,22.6c0.1,0,0.1-0.1,0.1-0.1c0,0,0,0-0.1,0C8.6,22.6,8.6,22.6,8.6,22.6z"/>
	<path d="M9,22.6c0,0,0.1,0.2,0.1,0.1C9.1,22.7,9,22.5,9,22.6z"/>
	<path d="M9.1,22C9.1,22,9.1,22,9.1,22c0.1,0,0.1-0.1,0.1-0.1C9.1,21.9,9.1,21.9,9.1,22z"/>
	<path d="M9.3,22.5C9.4,22.8,9.4,22.4,9.3,22.5L9.3,22.5z"/>
	<path d="M9.3,22.9C9.5,23,9.5,22.7,9.3,22.9L9.3,22.9z"/>
	<path d="M9.7,1C9.9,1,9.7,0.7,9.7,1L9.7,1z"/>
	<path d="M11,0.5c0-0.1-0.2,0.1-0.1,0.2C10.9,0.5,11,0.6,11,0.5z"/>
	<path d="M11,22.4C11.1,22.3,10.8,22.3,11,22.4L11,22.4z"/>
	<path d="M11.1,1.5c0-0.1,0-0.2,0-0.2c-0.1,0-0.1,0-0.1,0.1C11.1,1.4,11.1,1.5,11.1,1.5z"/>
	<path d="M11.3,22.1C11.3,22.1,11.3,22.1,11.3,22.1C11.4,21.9,11.1,22.1,11.3,22.1z"/>
	<path d="M11.5,0.8c0,0-0.2,0-0.1,0.1C11.5,0.9,11.6,0.9,11.5,0.8z"/>
	<path d="M11.9,1.3C12,1.6,12,1.1,11.9,1.3L11.9,1.3z"/>
	<path d="M12,23.6c-0.1,0-0.1-0.1-0.1-0.1C11.9,23.6,12,23.7,12,23.6z"/>
	<path d="M11.9,22.9C12,22.9,12,22.9,11.9,22.9c0.1,0,0.1-0.1,0.1-0.1c0,0,0,0-0.1,0C11.9,22.8,11.9,22.8,11.9,22.9z"/>
	<path d="M12.3,22.9c0-0.1,0-0.1,0-0.1C12.2,22.6,12.2,22.8,12.3,22.9z"/>
	<path d="M13.9,1.3C13.9,1.3,13.8,1.3,13.9,1.3C13.9,1.4,14,1.3,13.9,1.3z"/>
	<path d="M16.5,23.2C16.5,23.2,16.6,23.2,16.5,23.2c0.1,0,0.1-0.1,0.1-0.1c0,0,0,0-0.1,0C16.5,23.1,16.5,23.2,16.5,23.2z"/>
	<path d="M17.5,2c0-0.1,0-0.1-0.1-0.2C17.5,1.9,17.4,2,17.5,2z"/>
	<path d="M17.6,23.1c0,0.1,0.1,0.2,0.1,0.1C17.7,23.2,17.7,23,17.6,23.1z"/>
	<path d="M18.2,21.5c0-0.1,0-0.2-0.1-0.2C18.1,21.4,18.1,21.5,18.2,21.5z"/>
	<path d="M29.8,1.4c0.1-0.3,0.7,0.1,0.7-0.3l-0.1-0.1l0-0.1c-0.6,0-1,0.2-1.5,0c0,0.1-0.1,0.2-0.1,0.3C29,1.4,29.4,1.2,29.8,1.4z"/>
	<path d="M31,1.2c0.2,0.1,0.6-0.1,0.7,0.1c0.3-0.2,0.6,0,0.9-0.4c-0.2-0.2-0.4-0.1-0.5-0.1c-0.4,0.2-1-0.1-1.4,0.1l0,0.1l-0.1,0.1
		C30.7,1.4,30.9,1.3,31,1.2z"/>
	<path d="M31.6,1.6c-0.1,0-0.2,0-0.2,0.1C31.5,1.7,31.6,1.8,31.6,1.6z"/>
	<path d="M31.6,1.7c0,0,0.3,0.1,0.2-0.1C31.8,1.7,31.7,1.5,31.6,1.7z"/>
	<path d="M31.9,2.4c0.1,0,0.2,0,0.2-0.1C32,2.2,31.9,2.2,31.9,2.4z"/>
	<path d="M33.7,1.2c0.1,0.1,0.4,0.1,0.5-0.1l-0.1-0.1l0-0.1c-0.5,0-1-0.2-1.4,0.1C33.1,1.2,33.4,1.4,33.7,1.2z"/>
	<path d="M35.7,1.2c-0.1-0.3-0.4-0.3-0.6-0.5C35,0.9,34.9,1,34.6,1c-0.1,0,0-0.3-0.1-0.2c-0.1,0-0.1,0.2-0.2,0.2l0,0.1l0,0.1
		C34.7,1.4,35.3,1.3,35.7,1.2z"/>
	<path d="M33.7,21.9C33.8,22.1,33.8,21.7,33.7,21.9L33.7,21.9z"/>
	<path d="M37.1,1c0.1,0,0.2,0,0.2-0.1C37.3,0.8,37.1,0.8,37.1,1z"/>
	<path d="M39.4,1.3c0.1,0,0.4,0.1,0.3-0.2c-0.2,0-0.3-0.1-0.4,0C39.3,1.2,39.3,1.3,39.4,1.3z"/>
	<path d="M40.5,1.4c0-0.1,0.1-0.1,0.1-0.2c-0.2,0-0.1,0-0.2-0.1c0,0,0,0.1,0,0.1l0,0.1l-0.1,0.1C40.3,1.5,40.5,1.4,40.5,1.4z"/>
	<path d="M40.3,0.9c0,0-0.1-0.1-0.2,0C40.2,0.9,40.3,1.1,40.3,0.9z"/>
	<path d="M40.7,1.2c0,0.1,0,0.1,0,0.1C40.7,1.4,40.8,1.2,40.7,1.2z"/>
	<path d="M42,1.3L42,1.3c0.1,0,0.1,0,0.2,0L42,1.3c0.1-0.2,0.1-0.3,0-0.4c-0.4,0-0.8-0.1-0.9,0.4C41.5,1.4,41.7,1.5,42,1.3z"/>
	<path d="M42.1,2.6c0-0.1,0.1-0.1,0.1-0.2C42.1,2.4,42,2.6,42.1,2.6z"/>
	<path d="M42.8,1.2c-0.1-0.1-0.3,0-0.3,0.1C42.6,1.4,42.8,1.4,42.8,1.2z"/>
	<path d="M43.4,1.3c-0.1-0.1-0.2-0.2-0.3,0.1C43.2,1.4,43.3,1.4,43.4,1.3z"/>
	<path d="M43.9,1.3L43.9,1.3L43.9,1.3c-0.1-0.2-0.2-0.3-0.3-0.4c0,0.2-0.1,0.3-0.1,0.4C43.6,1.5,43.8,1.5,43.9,1.3z"/>
	<path d="M44.2,1.3L44.2,1.3l0-0.2c0,0,0-0.1-0.1-0.1C44,1.1,44,1.1,44,1.2l0.1,0l-0.1,0C44,1.4,44.2,1.4,44.2,1.3z"/>
	<path d="M44.9,1.6c0-0.3,0.4-0.1,0.4-0.2l0-0.1l0-0.1c-0.1-0.1-0.2,0-0.3-0.1c0-0.1,0-0.1,0-0.2c-0.2-0.1-0.4,0.1-0.5,0
		c0.1,0.2-0.1,0.1-0.1,0.3l0.1,0.1l0,0.1C44.6,1.4,44.9,1.3,44.9,1.6z"/>
	<path d="M44.5,20.7L44.5,20.7L44.5,20.7c-0.1,0.2,0,0.3,0.1,0.3c0-0.1,0.1-0.3,0-0.4C44.5,20.5,44.6,20.7,44.5,20.7z"/>
	<path d="M47.6,2c-0.1-0.1-0.3-0.3-0.4-0.3c-0.1,0-0.1,0.2-0.2,0.3c-0.1,0-0.1-0.1-0.1-0.1c0,0.1-0.1,0.2-0.1,0.3
		c0.4,0.2,1,0.2,1.3,0.1V2.1h0C48,2,47.9,2.1,48,1.9l-0.1,0l0-0.1C47.7,1.9,47.8,1.8,47.6,2z"/>
	<path d="M48.3,1.8c-0.1,0.1-0.2,0.1-0.3,0.3l0.1,0l-0.1,0c0,0.1,0.1,0.2,0.1,0.2c0-0.2,0.2-0.1,0.3-0.2c0.3,0.2,0.8-0.2,1.1,0.1
		c0.2-0.2,0.6,0.1,0.9,0.1c0-0.3,0.2-0.1,0.3-0.2l0-0.1l0.1,0C50.1,1.5,49,2.1,48.3,1.8z"/>
	<path d="M50.9,2L50.9,2l0,0.1c0.2,0.2,0.4,0,0.5,0c0.3,0,0.8,0.2,1-0.2c-0.2-0.1-0.5-0.2-0.7,0C51.5,1.6,51,1.6,50.9,2z"/>
	<path d="M50.8,1L50.8,1L50.8,1c-0.1-0.2-0.4-0.1-0.6-0.1c0,0.1-0.1,0.2,0,0.3C50.4,1.4,50.7,1.4,50.8,1z"/>
	<path d="M51.1,1.3c0.1-0.2,0-0.3,0-0.4c-0.1,0-0.1,0-0.1,0.1l0,0.1l-0.1,0c0,0-0.1,0-0.1,0l0.1,0C50.8,1.2,51,1.2,51.1,1.3z"/>
	<path d="M52.2,20.3c0,0.1,0.1,0.1,0.1,0.2C52.3,20.3,52.2,20.3,52.2,20.3z"/>
	<path d="M53.3,1.1c0.1,0,0.3,0,0.3-0.1l0-0.1l0-0.1c-0.1,0-0.1-0.2-0.2-0.3c-0.2,0.1-0.1,0.1-0.3,0.2C53.1,1,53.3,1,53.3,1.1z"/>
	<path d="M53.8,1.1c0.1,0,0.2-0.2,0.3-0.1c0-0.2,0.1-0.3,0.1-0.4c-0.1,0-0.1-0.1-0.2-0.2c-0.1,0.2-0.2,0.2-0.4,0.1
		c0,0.1-0.1,0.1-0.1,0.2l0,0.1l0,0.1C53.7,1.1,53.9,0.9,53.8,1.1z"/>
	<path d="M53.5,15.1c0,0.1,0,0.2,0,0.3c0.1-0.1,0.2-0.1,0.2-0.2C53.6,15.2,53.6,15.1,53.5,15.1z"/>
	<path d="M53.7,2.3C53.7,2.3,53.7,2.3,53.7,2.3c0.1,0.1,0.1,0.1,0.1,0.1C53.8,2.3,53.7,2.2,53.7,2.3z"/>
	<path d="M53.9,10.4C54,10.5,54,10.2,53.9,10.4L53.9,10.4z"/>
	<path d="M53.9,1.7c0.1,0,0.1-0.1,0.2,0C54.1,1.4,53.9,1.6,53.9,1.7z"/>
	<path d="M54.2,12.4c0,0,0.1,0.1,0.2,0.1C54.4,12.3,54.2,12.3,54.2,12.4z"/>
	<path d="M54.2,1.9c0.1,0,0.1,0,0.1-0.1C54.3,1.9,54.2,1.7,54.2,1.9z"/>
	<path d="M55,1.4c-0.1,0-0.1,0-0.1,0.1c0,0,0.1,0,0.1,0C55,1.4,55,1.4,55,1.4z"/>
	<path d="M55.4,13.8c-0.1,0-0.2,0-0.3,0.1c0.1,0,0.1,0.1,0.2,0.1C55.3,13.8,55.5,13.9,55.4,13.8z"/>
	<path d="M55.7,10.9c-0.1-0.2-0.2,0.1-0.2,0.2c0.1,0,0.1-0.1,0.2,0C55.6,11,55.7,10.9,55.7,10.9z"/>
	<path d="M55.8,13.9c0-0.1,0-0.1,0-0.2c-0.1,0-0.1,0-0.1,0.1C55.7,13.9,55.8,13.9,55.8,13.9z"/>
	<path d="M56.4,0.8c0-0.1,0-0.1,0-0.2l-0.1,0l0-0.1c-0.2,0-0.3-0.1-0.5-0.1c0,0.1-0.1,0.2-0.1,0.3C55.9,0.9,56.1,1,56.4,0.8z"/>
	<path d="M55.9,12.3c-0.1,0-0.1-0.1-0.2-0.1C55.7,12.4,55.9,12.5,55.9,12.3z"/>
	<path d="M55.9,13.9c0,0,0.1,0.1,0.1,0C55.9,13.9,55.9,13.8,55.9,13.9z"/>
	<path d="M55.9,11c0.1,0.1,0.1-0.2,0-0.2C56,10.9,55.9,10.9,55.9,11z"/>
	<path d="M56.2,10.8c0,0-0.1,0-0.1,0c0,0.1,0,0.1,0,0.2C56.1,10.8,56.2,10.9,56.2,10.8z"/>
	<path d="M56.2,13.8c0.1,0,0,0.2,0.1,0.2C56.4,13.8,56.3,13.6,56.2,13.8z"/>
	<path d="M56.4,13.6c0,0.2,0.1,0.2,0.2,0.2C56.6,13.6,56.4,13.7,56.4,13.6z"/>
	<path d="M56.4,10.9c0.1,0.1,0.1,0.1,0.2-0.1C56.5,10.7,56.4,10.7,56.4,10.9z"/>
	<path d="M56.6,10.8C56.6,10.8,56.6,10.8,56.6,10.8c0.1,0.1,0.1,0.1,0.1,0.1C56.7,10.7,56.6,10.7,56.6,10.8z"/>
	<path d="M57.2,0.6c0-0.1-0.1-0.1-0.2-0.1l0,0.1l-0.1,0C56.9,0.9,57.2,0.7,57.2,0.6z"/>
	<path d="M57.3,20.1C57.3,20.1,57.3,20.1,57.3,20.1c0.1,0,0.1-0.1,0.1-0.1c0,0,0,0-0.1,0C57.3,20,57.3,20.1,57.3,20.1z"/>
	<path d="M57.3,15.3c0.1,0.1,0.2,0,0.3-0.1C57.5,15.1,57.3,15.2,57.3,15.3z"/>
	<path d="M57.6,13.8C57.5,13.5,57.5,14,57.6,13.8L57.6,13.8z"/>
	<path d="M57.8,12.9c0.1,0,0.1,0,0.2,0c0-0.2-0.1-0.2,0-0.3C57.8,12.6,57.8,12.8,57.8,12.9z"/>
	<path d="M58.1,1.9C58.1,1.9,58.1,1.9,58.1,1.9c0.1,0,0.1-0.1,0.1-0.1c0,0,0,0-0.1,0C58.1,1.8,58.1,1.9,58.1,1.9z"/>
	<path d="M58.2,19.7c0,0.1,0.1,0.1,0,0.2c0.1-0.1,0.2,0.1,0.3-0.2C58.3,19.8,58.2,19.8,58.2,19.7z"/>
	<path d="M58.4,13.7c0,0.1,0.2,0.2,0.3,0.1c-0.1,0-0.1-0.1-0.1-0.2C58.5,13.7,58.4,13.6,58.4,13.7z"/>
	<path d="M58.5,9.4C58.4,9.4,58.4,9.4,58.5,9.4c-0.1,0-0.1,0-0.1,0.1c0,0,0,0,0.1,0.1C58.4,9.5,58.5,9.5,58.5,9.4z"/>
	<path d="M58.6,19.7c0.1,0.1,0.2,0.2,0.3,0C58.7,19.8,58.6,19.6,58.6,19.7z"/>
	<path d="M59,1.3c0-0.1,0-0.1,0-0.2c-0.1,0-0.2-0.1-0.3,0C58.8,1.2,58.8,1.4,59,1.3z"/>
	<path d="M58.7,13.9c0.1,0,0.1-0.1,0.1-0.2C58.8,13.6,58.7,13.7,58.7,13.9z"/>
	<path d="M59,9.5c0,0,0-0.1,0-0.1c0,0,0,0-0.1,0C58.9,9.4,58.9,9.4,59,9.5C58.9,9.5,58.9,9.5,59,9.5z"/>
	<path d="M58.9,19.7c0.1,0,0.1,0.1,0.1,0.1C59.1,19.7,58.9,19.7,58.9,19.7z"/>
	<path d="M59,14.3c0,0,0,0,0,0.1c0.1,0.1,0.2-0.2,0.1-0.3C59.2,14.3,59.1,14.2,59,14.3z"/>
	<path d="M59.6,15C59.9,15,59.7,14.8,59.6,15L59.6,15z"/>
	<path d="M59.8,19.6C59.8,19.6,59.8,19.7,59.8,19.6c0.1,0,0.1,0,0.1-0.1C59.8,19.5,59.8,19.6,59.8,19.6z"/>
	<path d="M60.1,14.2c0,0,0.1,0.1,0.1,0C60.2,14.2,60.1,14,60.1,14.2z"/>
	<path d="M60.2,3.6c0.1,0,0.2,0.1,0.2-0.1C60.3,3.4,60.2,3.5,60.2,3.6z"/>
	<path d="M60.4,14.2c0-0.1,0-0.2-0.1-0.2C60.3,14.1,60.4,14.2,60.4,14.2z"/>
	<path d="M60.7,14.3c0-0.2-0.1-0.2-0.2-0.2C60.5,14.3,60.7,14.2,60.7,14.3z"/>
	<path d="M60.6,1.6c-0.1,0-0.1,0.1-0.1,0.2C60.6,1.7,60.7,1.7,60.6,1.6z"/>
	<path d="M60.6,19.2c0,0.1-0.1,0.1,0,0.2c0.1,0.1,0.2,0.1,0.3,0C60.8,19.3,60.8,19.1,60.6,19.2z"/>
	<path d="M60.9,1.6c-0.1,0-0.2-0.1-0.2,0.1C60.8,1.7,60.9,1.7,60.9,1.6z"/>
	<path d="M60.9,3.5c0.1,0.1,0.2,0,0.2-0.1C61,3.4,60.9,3.3,60.9,3.5z"/>
	<path d="M60.9,1.7c0.2,0,0.4,0.1,0.5-0.2c-0.1-0.1-0.4-0.1-0.5,0C60.9,1.6,60.9,1.7,60.9,1.7z"/>
	<path d="M61.2,0.2C61.1,0.1,61,0,61,0.2C61.1,0.1,61.1,0.4,61.2,0.2z"/>
	<path d="M61.2,14.1c0,0,0-0.1,0-0.1c0,0,0,0-0.1,0C61.1,14,61.1,14.1,61.2,14.1C61.1,14.1,61.1,14.1,61.2,14.1z"/>
	<path d="M61.3,0.3c0-0.1,0.1-0.1,0.1-0.1c0-0.2-0.2-0.2-0.2-0.1C61.3,0.2,61.2,0.2,61.3,0.3z"/>
	<path d="M61.3,14.1c0.1,0,0.3-0.1,0.1-0.2C61.5,14.1,61.3,13.9,61.3,14.1z"/>
	<path d="M61.7,14.1c0.1,0,0.1-0.2,0-0.2C61.7,14,61.7,14.1,61.7,14.1z"/>
	<path d="M61.9,8.3c0,0,0,0,0,0.1c0.1,0,0.2,0,0.3-0.2c-0.1,0-0.1-0.1-0.2-0.2C62.1,8.3,61.9,8.2,61.9,8.3z"/>
	<path d="M62.4,3.3c0.1,0,0.2,0.1,0.2-0.1C62.5,3.2,62.4,3.2,62.4,3.3z"/>
	<path d="M64.8,1.7c0.1-0.2,0-0.3,0-0.4c-0.1,0-0.1,0-0.2,0.1l0,0.1l0,0.1C64.6,1.6,64.7,1.7,64.8,1.7z"/>
	<path d="M64.9,2.2c-0.1,0.1,0,0.1,0,0.2c0.1,0,0.2,0,0.2-0.1C64.9,2.3,65,2.2,64.9,2.2z"/>
	<path d="M65.2,2.3c0-0.1-0.1-0.2-0.1-0.2C65,2.3,65.2,2.2,65.2,2.3z"/>
	<path d="M66,1.3c0,0.1-0.1,0-0.1,0.2c0,0,0.1,0,0.1,0C66.1,1.4,66.1,1.3,66,1.3z"/>
	<path d="M67.1,4.5c0,0-0.2,0-0.1,0.1C67.2,4.6,67.2,4.6,67.1,4.5z"/>
	<path d="M68.2,3.3c0,0,0.1,0,0.1-0.1c0,0,0,0,0-0.1C68.2,3.2,68.2,3.2,68.2,3.3z"/>
	<path d="M69,6.5c0,0.1,0,0.2,0,0.3c0,0,0.1,0,0.1-0.1l0-0.1c0,0,0,0,0,0c0-0.1,0-0.1,0-0.2l0,0.1C69.1,6.5,69.1,6.5,69,6.5z"/>
	<path d="M69.2,6.2c0,0.1-0.2,0.2,0,0.3l0-0.1l0,0.1c0,0,0,0,0,0l0-0.1l0.1-0.1C69.2,6.3,69.2,6.3,69.2,6.2z"/>
	<path d="M69.8,6.4c-0.1-0.1-0.2-0.3-0.2,0.1l0,0.1l0,0.1c0.1-0.1,0.2,0.1,0.3-0.1L69.8,6.4L69.8,6.4z"/>
	<path d="M0.1,4.4C0,4.2-0.1,4.4,0.1,4.4L0.1,4.4z"/>
	<path d="M0.1,11.3C0.2,11.4,0,10.9,0.1,11.3L0.1,11.3z"/>
	<path d="M0.3,9.9C0.1,10,0.2,10,0.3,9.9C0.4,9.9,0.3,9.9,0.3,9.9z"/>
	<path d="M0.3,18.4C0.3,18.4,0.3,18.4,0.3,18.4C0.3,18.3,0.1,18.2,0.3,18.4z"/>
	<path d="M68.5,5.6c-0.1,0.3-0.1,0-0.2-0.1c-0.1,0-0.6,0.2-0.6,0.2c-0.2,0-0.4-0.1-0.4-0.1c-0.1,0-0.1,0.1-0.2,0.2
		c-0.1,0-0.2-0.1-0.3-0.1c-0.2,0-0.3,0.1-0.5,0.2c0,0-0.1-0.1-0.1-0.1C65.6,5.9,65.1,6,64.8,6c0,0,0,0,0,0.1c-0.4-0.1-0.7,0.2-1,0
		c0,0.2-0.1,0-0.2,0.1c-0.2,0-0.4,0.1-0.6,0.2c-0.3,0-0.7,0.1-0.9-0.1c-0.4,0.4-0.9,0-1.3,0.3c-0.1-0.2-0.1-0.1-0.1,0
		c0-0.1-0.1-0.1,0-0.2c-0.1,0-0.1,0.2-0.1,0.2c0-0.1,0-0.1,0-0.1c0-0.1,0.2-0.2,0.3-0.1c0-0.1,0-0.2,0.1-0.2c0.1,0,0.1,0,0.1,0
		c0,0.1,0,0.1,0,0.2c0.4-0.3,0.8-0.5,1.2-0.1c0-0.2,0,0.1,0.1,0c0-0.2,0.2-0.1,0.2-0.3c0.3,0.2,0.5,0,0.7,0c0,0,0,0.1,0,0.1
		c0,0,0-0.1,0-0.1c0.1-0.1,0.1,0.1,0.2,0.1c0.1-0.3,0.3,0,0.6-0.2c0.1,0,0.1,0.1,0.2,0.2c0.1-0.3,0.4-0.3,0.6-0.3
		c0.2,0,0.4,0.2,0.4,0.2c0,0,0-0.1,0.1-0.1c0.2,0,0.5-0.1,0.7,0c0.1-0.2,0.2,0,0.4,0c0.1,0,0-0.1,0.2-0.1c0.2,0.2,0.4,0,0.5-0.2
		c0.2,0,0.5,0.2,0.7-0.1c0.4,0.2,0.8,0,1.2,0.1c-0.1-0.1,0-0.3,0.1-0.3c0,0.1-0.1,0.1,0,0.1l0-0.1l0,0.1c0.1,0,0.1,0.2,0.2,0.2
		c0-0.1,0-0.3,0-0.4c0.1,0.2,0.1,0.2,0.2,0.4c0-0.2,0.2-0.1,0.2-0.1C70,5,69.9,4.9,70,4.8c-0.2,0-0.2-0.3-0.3-0.4
		c0,0.1-0.1,0.1-0.1,0c0-0.2,0.3-0.1,0.4-0.2l0-0.1l0.1,0c-0.2-0.3-0.6-0.3-0.7-0.2c-0.2,0.1-0.3,0-0.4,0C69,3.9,68.9,4,68.9,4
		c0.1,0-0.1-0.3-0.1-0.1c0-0.1,0-0.3-0.1-0.3c-0.1,0,0,0.2-0.1,0.2c-0.1,0,0-0.2-0.1-0.2c0,0,0,0.2-0.1,0.2C68.2,3.5,68,4,67.9,3.8
		c0,0.4-0.6-0.1-0.9,0.1c0,0,0,0.1-0.1,0.1c-0.2,0.1-0.2,0-0.3,0C66.3,4,66.1,4,65.9,4c-0.5,0-1.1-0.1-1.5,0.2l0,0.1l0,0.1
		c0.2,0.1,0.4-0.1,0.7,0.1c0-0.1,0.2,0,0.2-0.2c0.2,0.1,0.4,0,0.6,0.2c0.3-0.2,0.6-0.1,0.9-0.2c0.1,0.2,0.6-0.2,0.7,0.2
		c-0.3,0.1-0.3,0.4-0.6,0.3c-0.1,0-0.1,0.1-0.2,0.2c-0.3-0.1-0.4,0-0.6-0.1c-0.1,0-0.1,0.1-0.1,0.2c-0.3-0.1-0.6,0-0.8-0.1
		c0,0,0,0.1,0.1,0.1C65.3,5.2,64.9,5,65,5.1c-0.4,0-0.9,0-1.3,0.1c-0.2,0-0.3,0-0.4,0.1c-0.2,0-0.7,0.3-0.7,0.1
		c-0.5,0.1-1.1,0.1-1.8,0.2C60.4,5.4,60.1,5,59.9,5C59.8,4.9,60,4.9,60,4.8l0-0.1l0-0.1c-0.3-0.2-0.6,0-0.8-0.1l0-1l-0.3,0l-4.5-0.4
		l-0.7,0c0.2,0,0.3,0,0.6-0.1c0.1,0,0.1,0.1,0.2,0.2c0.1-0.2,0.3,0,0.3-0.2c0.4,0,0.6,0,0.9,0c0.1-0.2,0.1,0,0.2-0.1
		c0,0,0-0.1,0.1-0.1c0.2,0,0.3,0.2,0.5,0.1c0.1,0,0.1-0.1,0.2-0.2c0.2,0,0.5,0.1,0.7,0.1c0-0.2,0.5-0.2,0.5,0c0.3-0.3,1-0.1,1.4-0.4
		l0-0.1l0.1,0c0-0.2,0-0.2,0-0.3c-0.1,0.1-0.2,0.2-0.3,0.3c0,0,0-0.1,0-0.1c0,0,0,0.1,0,0.1c-0.1-0.2-0.3,0-0.4,0
		c-0.3,0-0.6-0.1-0.9-0.1c-0.2,0-0.4,0.2-0.6,0.2c0,0-0.1-0.1-0.1-0.1c-0.2,0-0.4,0.2-0.7,0.1c-0.1,0,0-0.1-0.1-0.1
		c-0.1,0-0.2,0-0.2,0.2c-0.5,0-1-0.2-1.5,0c0,0.1,0,0.1,0,0.2c-0.4-0.1-0.7,0-1,0c-0.2,0-0.3,0-0.4,0.1c-0.2,0.1-0.5,0.1-0.7,0.1
		c0,0,0-0.1-0.1-0.1c-0.1,0-0.3,0.1-0.4,0.1c0,0,0-0.2-0.1-0.1c0,0,0,0.1,0,0.1c-0.5-0.3-1,0.4-1.5-0.1c-0.1,0.1-0.2,0.1-0.2,0.2
		l-0.1,0c0,0,0-0.1-0.1-0.1c0,0,0,0.1,0,0.1l-5.9-0.3c0,0,0,0,0,0l0,0l-0.3,0c0-0.1-0.1-0.1-0.1,0c0,0,0,0,0.1,0l-0.1,0l-0.4,0
		c0,0,0,0,0,0l0.1,0c0,0-0.1,0-0.1,0.1l0-0.1c0,0-0.1,0-0.1,0l0,0.1l-0.1,0c0,0,0,0,0,0l-0.4,0c0-0.1-0.1-0.2-0.1,0c0,0,0,0,0,0
		c0,0,0,0,0,0l-0.1,0c0,0,0,0-0.1-0.1c0,0,0,0,0,0.1L41,2.8c-0.2,0-0.5,0-0.6-0.2c0,0.1,0,0.1-0.1,0.1c0-0.1-0.1,0-0.1-0.2
		c-0.6-0.2-0.8,0.1-1.3,0.3c-0.2-0.2-0.4,0-0.5,0.2c-0.3-0.2-0.6,0-0.9-0.2c0-0.1,0-0.1,0-0.2c-0.3-0.3-0.6-0.3-1-0.2
		c0,0.2,0,0.4-0.1,0.4c0.1-0.3-0.1-0.3-0.2-0.4l0,0.1c-0.1-0.1-0.2-0.1-0.3,0l0.3,0c-0.1,0.1,0,0.1,0.1,0.2c-0.2,0.3-0.7,0-1-0.2
		c-0.2,0.2-0.5,0.2-0.8,0.1c0.1-0.1,0-0.3,0-0.3c0,0,0,0,0-0.1c-0.6,0.2-1.6-0.2-2.1,0c0,0,0-0.1,0-0.1c0,0,0-0.1,0,0
		c0,0.1,0,0.3-0.1,0.4c-0.1-0.1-0.2,0-0.4,0c0,0,0,0,0-0.1l0,0l0,0c-0.3,0-0.3,0.2-0.7,0.1c0-0.1-0.1-0.1,0-0.2l0.3,0
		c-0.1,0-0.2-0.1-0.3,0l0-0.1c0-0.1,0-0.1-0.1-0.2c0,0.1-0.2,0.1-0.2,0.1C30.4,2,30.2,2.3,30,2.1c-0.6,0.2-1.3,0-1.8,0.1
		c-0.1,0-0.2,0.1-0.3,0.1c0,0,0-0.1,0-0.1l0,0.1l0-0.1c-0.1,0.1-0.4,0.1-0.5,0.2c0-0.1,0-0.1,0-0.2c-0.1,0.1-0.3,0.2-0.4,0.1l-0.1,0
		l-0.1,0c-0.1,0.1-0.6,0.2-0.7,0c-0.1,0.2-0.1,0-0.1,0.2c0,0,0-0.1-0.1-0.1l0,0.1l0-0.1c-0.2,0.1-0.5,0.1-0.5,0.1
		c-0.2,0-0.2,0.1-0.4-0.1c0.2-0.4,0.5-0.1,0.7-0.3c0,0.1-0.1,0.1,0,0.1c0.1,0,0-0.1,0.1-0.2c0,0,0,0,0,0l0-0.1l0.1-0.1
		C25.6,1.7,25.2,2,25,1.8c0,0,0,0.1,0,0.1c-0.4-0.1-0.9,0-1.5,0c0-0.1-0.1-0.1-0.1-0.2c0.2-0.1,0.6,0,0.8-0.2c0,0.1,0,0.1,0.1,0.2
		c0.4-0.3,1,0,1.5-0.2l0-0.1l0.1-0.1c-0.1-0.2-0.2,0-0.4-0.1c-0.4,0-0.9-0.1-1.3,0.1c-0.2-0.2-0.5,0-0.7,0.1c-0.2-0.2-0.6,0-0.8-0.2
		c-0.1,0.1-0.2,0.1-0.3,0.1c-0.3,0-0.6,0-0.9,0c-0.3,0-0.7,0-0.8,0.1c-0.2-0.1-0.3,0-0.5,0c0,0,0,0,0-0.1c-0.2,0.2-0.6,0.1-0.6,0.2
		c-0.5,0-1-0.2-1.5,0.1v0.1h0c0,0.1,0.2,0.1,0.3,0.4c0,0,0,0-0.1,0.1C17.8,2,17.8,2,17.8,1.8C17.6,2,17.5,2.1,17.2,2l0,0.1l-0.1,0
		c0,0,0,0.1,0,0.1c0,0-0.1,0-0.1,0c0,0,0-0.1,0.1-0.1c0-0.2-0.2,0.1-0.2-0.2C16.9,1.9,17,1.9,17,1.8c0,0,0,0,0,0.1
		c0,0.1,0.1,0.1,0.1,0.1l0-0.1l0.1,0c0.1-0.1,0,0,0.1-0.2l-0.1,0l0-0.1c-0.1-0.2-0.4,0.2-0.4-0.1c-0.2,0.2-0.5-0.1-0.7,0.1
		c0-0.1,0-0.1,0-0.2c-0.3,0.3-0.4,0.1-0.8,0.2l0,0.1l-0.1,0c0,0-0.1,0.1-0.2,0.1c0-0.1,0-0.1,0-0.1c-0.3-0.1-0.7,0.2-0.9-0.2
		c0,0.2-0.1,0.1-0.2,0.2c-0.2-0.3-0.2,0.1-0.4-0.2c0,0.2-0.1,0.1-0.2,0.2c0-0.1,0.1-0.1,0.1-0.2c-0.2,0-0.3,0.2-0.5,0.2
		c0,0-0.1-0.1-0.1-0.1c-0.2,0-0.4,0-0.5,0.1l-0.1,0l0-0.1c0,0,0,0.1-0.1,0.1C12,1.8,12.1,1.5,12,1.5c0,0.3-0.7,0.1-0.6-0.1
		c-0.1,0.2-0.2,0.2-0.4,0.2c0-0.1,0-0.1-0.1-0.2c0,0.2-0.2,0.2-0.3,0.1c0,0.2-0.2,0-0.3,0c0,0.2-0.2,0-0.3,0.1c0-0.1,0-0.1-0.1-0.2
		c0,0.1-0.1,0-0.1,0.1c0,0,0.1,0,0.1,0.1C9.8,1.5,9.8,1.7,9.8,1.8c-0.1-0.1,0-0.1-0.1-0.2c-0.2,0-0.2-0.1-0.4,0l0,0.1
		C9.3,1.6,9.2,1.5,9.2,1.5c-0.1,0-0.1,0-0.2,0c0,0,0,0.1,0,0.1L9,1.6c0,0.1-0.2,0-0.2,0c0,0.2-0.1,0.1-0.1,0.2
		c-0.1,0-0.1-0.2-0.2-0.2c0,0-0.1,0.3-0.2,0.2l-0.1,0l0-0.1C8.2,1.5,8,1.7,7.9,1.8l0,0.1l-0.1,0c0,0-0.1,0.3-0.1,0.1l-0.1,0l0-0.1
		c0,0-0.1,0-0.1,0c0,0,0,0,0-0.1l0,0l0,0C7.4,1.9,7.4,2,7.3,1.8l-0.1,0l0-0.1c-0.1,0-0.1,0.2-0.2,0.2l0,0.1C7.1,1.8,7,1.9,7,2L7.1,2
		c0,0,0,0.1,0,0.1c0,0,0,0-0.1-0.1L7,2L7,2c0,0,0,0-0.1,0l0,0.1L6.9,2c0,0.1,0,0.1,0,0.2c0,0,0,0-0.1-0.1l0,0.1l0-0.1
		C6.6,2.1,6.6,2,6.5,2c0,0.1,0,0.2,0,0.2c-0.1-0.2-0.1,0-0.3-0.1C6.1,2.4,6.1,2,6,2.4c-0.1,0-0.1-0.1-0.1-0.2c0,0.1-0.1,0.1-0.1,0.2
		c0,0,0-0.1,0-0.1l-0.1,0l-0.1,0c0,0,0,0.1,0,0l0-0.2c-0.1,0,0,0.2,0,0.3l-0.1,0c-0.2,0-0.1,0-0.2,0.2C5.2,2.5,5,2.4,5,2.4
		c0-0.1,0.1-0.2,0-0.2C4.8,2.4,4.8,2.1,4.7,2.1c-0.1,0,0.1,0.1,0,0.3c-0.1,0-0.2,0-0.3-0.1c0,0.1,0,0.2-0.1,0.2
		c0-0.1-0.1-0.2-0.1-0.2c0.1,0.4-0.6,0.2-0.5,0.4c0-0.1-0.1-0.1-0.1-0.2C3.5,2.7,3.3,2.7,3.3,2.8c-0.1,0,0-0.3-0.1-0.3
		c0,0.1,0,0.3-0.1,0.2l0,0.1c0,0,0,0-0.1,0c0,0-0.1,0-0.1,0.1c0,0,0,0,0,0.1l0.1-0.1c0,0,0,0.1-0.1,0.1h0V2.8
		c-0.1,0-0.1,0.1-0.1,0.1c-0.1,0-0.1-0.1-0.1-0.1c0,0.1,0,0.1,0,0.2c0,0,0-0.1,0-0.1l0,0.1L2.6,3c0,0.1-0.1,0.1,0,0.2c0,0,0-0.1,0,0
		c0,0,0,0.1,0,0.1l-0.1,0c0,0.1,0.1,0.1,0.1,0.1c0,0,0.1-0.1,0.1-0.2l0,0.1c0,0.1,0.1-0.1,0.2,0.1c-0.1,0.1-0.3,0-0.3,0.3l0,0.1
		l0,0.1C2.6,3.9,2.6,4,2.6,4c0,0,0,0.1-0.1,0.1l0,0.1l-0.1,0c0,0,0,0,0,0.1C2.4,4.1,2.4,4,2.3,4C2.2,4.1,2.2,4.5,2.2,4.2
		C2.1,4.4,2.1,4.9,2.1,5C2,5,2,5,1.9,5l0,0.1l-0.1,0c0,0.1,0.1,0.1,0.1,0.2l0-0.1l0,0.1c0,0,0.1,0.1,0.1,0.1h0c0,0,0,0.1,0,0.2
		c0.1,0.1,0.1,0.1,0.2,0v0.1c0.1-0.1,0.2,0.2,0.1,0.3c0,0-0.1,0-0.1,0l0,0.1L2.4,6c0,0.1,0,0.3,0,0.3c-0.1,0.1,0-0.2-0.1-0.2
		C2.1,6.2,2,6.2,1.9,6.3c0.1,0.1,0,0.2,0,0.1c0,0.4,0.3,0.3,0.4,0.5c0,0.1-0.1,0.1,0,0.3c0,0.2,0.3,0.4,0.1,0.7L2.2,7.5
		c0,0.1,0,0.2,0,0.3c0,0,0.1,0,0.1,0l0,0.1C2.2,8,2.3,7.9,2.3,8c0,0.2-0.1,0-0.2,0.1c0,0.1,0,0.1,0.1,0.1l0.1,0l0,0.1c0,0,0,0,0,0.1
		c0,0,0,0-0.1,0l-0.1,0l0-0.1C2,8.3,2.3,8.5,2.1,8.6C2.1,8.4,2.1,8.4,2,8.3C2,8.4,2,8.5,1.9,8.6C1.8,8.6,1.8,8.5,1.8,8.5
		C1.6,8.6,1.6,8.8,1.4,8.9c0-0.1-0.1-0.3-0.1-0.1c0,0.1,0.2,0,0.1,0.2l0,0.1l-0.1,0c0.1,0,0,0.2,0.1,0.2c0-0.2,0.1-0.2,0.1-0.1
		c0,0-0.1,0-0.1,0.1c0.1,0,0.1-0.2,0.2,0c0,0,0,0,0,0.1l0.1,0l0,0.1c0.1,0,0.1,0,0.2-0.1c0.1,0.1,0,0.2-0.2,0.2c0,0,0,0,0-0.1l0,0
		l0,0c-0.2,0.1-0.4,0-0.5,0.1c0.1,0,0.1,0.2,0,0.2c-0.1,0,0-0.1-0.1-0.1c0,0.1,0.1,0.1,0,0.2c0,0,0-0.1-0.1-0.1L1,10
		c0-0.1-0.1-0.1-0.1-0.1c0,0-0.1,0-0.1,0.1h0.1c0,0-0.1,0-0.1,0.1c0.1,0.2,0,0.3,0.1,0.5c0.1,0,0.3,0,0.4,0.1
		c-0.1,0-0.1,0.2-0.2,0.3c0.1,0.1,0.1,0,0.1,0.2c0.1,0,0-0.2,0.2-0.2c-0.1,0.4-0.4,0-0.5,0.3c0.1,0,0.2,0.1,0.2,0.2l0.1,0l0,0.1
		c0.1,0.1,0.1,0.1,0.1,0.3c-0.1,0-0.1,0-0.1,0.2c0.1,0.1,0.2,0.1,0.2,0.2c0,0.1-0.1,0.2,0,0.1v-0.1c0,0,0,0,0,0.1
		c0.1,0,0.1-0.1,0.2-0.1l0,0.1c0,0,0,0,0.1,0c0,0.1,0.1,0.1,0.1,0.2c-0.2-0.1-0.1,0.1,0,0.2c-0.1,0.1-0.1,0.1-0.1,0.4
		c0,0-0.1-0.1-0.1,0c0.2,0.1,0,0.3-0.1,0.4c0,0.2,0.1-0.2,0.1,0c0,0.2,0,0.2,0,0.5c-0.1-0.1-0.1,0-0.2,0.1c0.1,0-0.1,0.1,0.1,0.2
		c0-0.1,0-0.1,0.1-0.1c0,0.1,0,0.1,0,0.1c0,0.1-0.1,0.1-0.1,0.3c0.1,0,0.1,0.1,0.1,0.2c0,0.1,0,0.1,0,0.2l0.1,0l-0.1,0
		c0,0.2,0.2,0.1,0.2,0.4C2,15,1.9,14.8,2,14.8c0.1,0.2,0,0.4,0,0.7v0.1h0c0,0.1,0.2,0.1,0.1,0.3c0.2,0,0.5,0.6,0.6,0.8l0.1,0l0,0.1
		c0,0,0,0,0.1,0.1l0-0.1l0,0.1c0.1,0,0.1,0.2,0.2,0.2l0-0.1l0,0.1c0,0,0.1-0.2,0.1-0.1l0.1,0l0,0.1c0,0,0.1,0,0.2,0
		c0,0.1,0,0.2,0,0.2c0,0.1-0.2-0.1-0.2-0.1l-0.1,0l-0.1,0C3.1,17.1,3,17,3,17h0V17c-0.1,0-0.1,0.1-0.1,0l-0.1,0l0-0.1
		c-0.1,0,0,0.1-0.1,0.1c0,0.4-0.1,0.3-0.1,0.4c0.2,0.1,0.1,0.2,0.1,0.3c0-0.1,0.2,0,0.1,0.2c0.1,0.1,0-0.2,0.1-0.2
		c0.4,0.3,0.2,0.6,0.5,1c0-0.1-0.1-0.2,0-0.2c0,0.2,0,0.2,0.1,0.4l0.1,0l0,0.1c0.1,0,0.1,0.2,0.1,0.2c0,0,0-0.1,0-0.1
		c0,0.1,0.1,0.1,0.1,0.2c0.1-0.2,0.2,0.2,0.3,0c0,0.1,0,0.1,0,0.2c0.2-0.1,0.2,0.1,0.3,0.2c0-0.1,0-0.1,0.1-0.2
		c0.3,0.1,0.6,0.3,0.7,0.7c0.1,0,0-0.2,0.2-0.2l0-0.1l0.1,0c0,0,0.3-0.1,0.3-0.1c0,0,0,0.1,0,0.1c0,0,0,0,0-0.1c0,0.1-0.1,0.2,0,0.3
		c0.2,0.1,0.3,0.2,0.7,0.1c0,0.1-0.2,0.1-0.1,0.3l0.1,0.1l0,0.1c0.1,0,0.1,0.2,0.1,0.3c0-0.2,0.1,0,0.2-0.1c0-0.1,0-0.1,0-0.2
		c0.2-0.1,0.3,0.2,0.4,0.2c-0.1,0,0-0.1,0-0.2c0.1,0,0,0.2,0.1,0.2c0-0.1,0.1,0.1,0.1-0.1c0,0.1,0,0.1,0,0.2l0.1,0l0,0.1
		c0.1,0,0-0.2,0.1-0.1l0.1,0l0.1,0c0.2,0,0.2,0.1,0,0.1l0,0.1l-0.1,0c0,0.1-0.1,0.1-0.1,0l-0.1,0l-0.1,0c-0.1,0-0.2,0-0.2,0.1
		c0-0.1,0-0.2-0.1-0.2C7.1,21,7,21,6.9,21.1c0-0.1,0-0.2-0.1-0.2c0.1,0.3,0,0.3,0.1,0.5l0,0.1l0,0.1c0,0,0,0,0,0.1l0.1,0l0.1,0
		c0.1,0,0.1,0.1,0.1,0.1v-0.1h0c0,0,0.1-0.1,0.1,0l0,0l0,0c0.1,0,0.1,0,0.1,0.1c0,0.1-0.1,0-0.1,0.1l0.1,0.1l0,0.1
		c0.1,0,0.2-0.1,0.2,0.1c0.1,0,0.2-0.1,0.3-0.2c0,0.1,0.2,0.3,0.2,0.2c-0.1,0,0.4-0.1,0.4-0.2c0,0.1,0.1,0.1,0.1,0.2
		c0.1-0.1,0.4-0.2,0.6-0.1l0.1,0l0,0.1c0.2,0,0.1,0,0.2-0.2c0.1-0.1,0.1,0.1,0.1,0.1c0-0.1,0.1-0.1,0.1-0.1c0,0,0,0,0,0l0.1,0l0,0.1
		c0.1,0,0.1-0.2,0.2-0.2c0,0.1,0,0.1,0,0.2c0.2,0,0.3-0.2,0.4-0.2c0,0.1-0.1,0-0.1,0.1c0.1,0,0.3-0.1,0.4,0.1
		c0.2-0.3,0.5,0.1,0.7-0.1l0-0.1l0,0.1c0.1-0.1,0.2,0.1,0.3,0.2V22h0c0.1,0,0-0.1,0.1-0.1l0,0l0,0c0,0,0.1-0.1,0.1-0.1
		c0,0.1-0.1,0.1-0.1,0.1l0,0.1l-0.1,0c-0.1-0.1,0,0.1-0.1,0.1l0,0.1l0-0.1c0,0,0,0,0,0.1c0.2,0.2,0.5,0.1,0.5-0.1
		c0,0.2,0.2,0.2,0.3,0.3c0.2-0.2,0.2,0,0.3-0.3c0.1,0.1,0.3,0.1,0.4,0.3c0-0.1-0.1-0.2,0-0.2c0.2,0.1,0.4,0.2,0.4,0.3c0,0,0,0,0,0.1
		c0.1,0.1,0.1-0.1,0.1-0.2c0.1-0.1,0.2-0.1,0.3-0.1c0,0.1,0,0.1,0,0.2c0.1-0.1,0.2-0.2,0.4-0.2c0.1,0,0.2,0.3,0.3,0.3
		c0,0,0.1-0.2,0-0.2c0.3-0.2,0.9,0,1,0.1c0,0-0.1-0.1,0-0.1c0,0,0.3,0.1,0.4,0c0,0,0-0.1,0-0.1c0.1,0,0.3,0.1,0.4-0.1
		c0.2,0.4,0.2,0,0.4,0.3c0.1-0.1,0.1-0.2,0.3-0.2c0,0,0,0,0,0.1c0.5-0.2,0.7,0.1,1-0.1c0.1,0.1,0.1,0.1,0.3,0.1c0-0.1,0-0.1,0-0.2
		c0.1,0.1,0.2,0.2,0.4,0.1c0.1,0,0.2,0.3,0.2,0.2c0,0-0.1-0.1-0.1-0.1c0.1,0,0.7-0.2,0.6,0.1c0.1,0,0.2-0.2,0.3-0.1
		c-0.1,0-0.1,0.1,0,0.1c0-0.2,0.1,0,0.2-0.1c0.1,0,0.2-0.2,0.3-0.2c0,0,0.1,0.1,0.2,0.1c0.1,0.1,0.4,0.1,0.5,0.1c0,0,0-0.1,0-0.1
		c0.1,0,0.1,0.1,0.2,0.1c0.1,0,0.1-0.1,0.2-0.1c0,0-0.1,0.1,0,0.1c0,0,0.1-0.1,0.2-0.2c0.2,0,0.4,0.1,0.3,0.2c0,0,0.2-0.1,0.1-0.1h0
		v0.1c0,0.1,0.2-0.2,0.3,0c0-0.1,0-0.1,0-0.2c0.1,0.1,0.4-0.1,0.3,0.2c0-0.2,0.2,0,0.2,0.1c0,0,0.1-0.1,0.2-0.2c0.1,0,0.3,0,0.1,0.1
		c0.2-0.1,0.3,0,0.3-0.1c0.1,0.1,0.2,0,0.3,0.1c0-0.2,0.5-0.2,0.3-0.1c0.1-0.1,0.3-0.1,0.4-0.2c-0.1,0.3,0.3,0,0.5,0
		c0.2,0,0.2,0.2,0.3,0c0,0.1,0.1,0.2,0.1,0.2l0-0.1l0,0.1c0.1-0.2,0.3,0,0.4,0c0-0.2,0.1-0.1,0.2-0.3c0.1,0.2,0.4,0,0.6,0.2
		c0,0,0-0.1,0-0.1c0.3-0.1,0.8,0.1,1,0l0-0.1l0-0.1c0-0.1,0-0.2,0-0.3c-0.3-0.1-0.9-0.2-1,0.1c-0.2,0-0.5,0-0.6,0.1
		c-0.3-0.2-0.6-0.2-0.9-0.2c0,0,0-0.1-0.1-0.1c-0.1,0.2-0.2,0-0.2,0.2c-0.1,0-0.2-0.1-0.3-0.2c0,0.3-0.2,0.1-0.3,0.1
		c0,0.1,0.1,0.1,0,0.2c-0.1,0.1-0.1-0.1-0.1-0.2c-0.1-0.1-0.3,0.1-0.4,0.1c0,0-0.1-0.1-0.1-0.1c-0.1,0-0.6,0.3-0.6,0.1
		c-0.2,0.1-0.3,0.1-0.4-0.1c0,0.1,0,0.1,0,0.2c-0.2-0.1-0.4,0.2-0.3-0.1c-0.1,0-0.1,0.1-0.2,0c-0.1,0.1,0.1,0.2,0,0.2
		c-0.1,0-0.2-0.2-0.3-0.2c-0.2,0.1-0.2,0.1-0.4,0.3c0.1-0.2-0.1-0.1-0.1-0.1c0,0,0-0.1,0-0.1c-0.2-0.1-0.4,0-0.5,0.1
		c0,0,0-0.1,0-0.1c-0.2,0.1-0.2,0.1-0.4,0.2c0-0.1-0.2-0.1,0-0.2c-0.2,0-0.3,0.2-0.5-0.1c0.2,0.5-0.5,0-0.3,0.3
		c-0.2,0-0.2-0.2-0.4-0.1c0-0.1,0.1-0.1,0-0.2c-0.1,0.2-0.3,0.1-0.4,0c0,0.2-0.2-0.1-0.2,0.2c0-0.1-0.1-0.1-0.1-0.1
		c0,0.1,0.1,0.1,0,0.2c-0.2,0-0.4-0.1-0.6-0.3c-0.1,0.1-0.2,0.2-0.2,0.1c0,0,0,0,0-0.1c-0.1,0.1,0,0.1,0,0.2
		c-0.2-0.1-0.5,0.2-0.7-0.1c0,0.1,0,0.1-0.1,0.2c-0.1-0.1,0.1-0.3-0.1-0.3l0,0.1l0-0.1c-0.1,0,0,0,0,0.2c-0.1,0-0.1-0.1-0.2-0.1
		c0,0,0,0.1,0,0.1c0,0.1-0.1,0-0.2,0.1c0-0.2-0.2-0.1-0.2,0c-0.1,0,0.1-0.1,0-0.2c-0.1,0-0.1,0-0.1,0.2c-0.1,0-0.1-0.1-0.1,0l0,0.1
		l-0.1,0c-0.2,0.1-0.3-0.3-0.5-0.1c0.1-0.2,0.3-0.1,0.3-0.4c0,0,0,0.1,0,0.2c0.3,0,0.6-0.2,0.9-0.1l0,0l0,0c0.2,0.1,0.3,0.1,0.5,0.1
		c0-0.1,0-0.1,0-0.2c0.2,0,0.2,0,0.2-0.1c0.1,0.2,0.2,0.1,0.3,0.2c0-0.1-0.1-0.2,0-0.2c0,0,0,0,0.1,0.1v-0.1h0
		c0.1,0.1,0.3-0.1,0.4-0.1c0,0,0,0.1,0,0.1c0,0,0-0.1,0-0.1c0.2,0,0.4,0,0.6,0.1c0.2-0.1,0.4-0.2,0.5,0c0.1-0.1,0.1-0.1,0.2-0.2
		c0.1,0.1,0,0.2,0,0.2c0.2-0.2,0.6-0.1,0.9-0.3c0,0.3,0.2-0.1,0.2,0.1l0,0l0,0c0.1-0.1,0.3-0.1,0.3,0.1c0.1-0.2,0.2,0,0.3,0.1
		c0.2-0.5,0.8,0.1,1.1-0.3c0.1,0.1,0,0.1,0,0.2c0.1-0.1,0.1-0.1,0.3,0c0.2-0.4,0.5,0.1,0.7-0.2c0,0,0,0,0,0.1l0,0l0,0
		c0.1-0.1,0.4-0.1,0.5,0.1c0.1-0.3,0.5-0.2,0.6,0.1c-0.1-0.4,0.2,0,0.4-0.2c0,0.1,0,0.1,0,0.2c0.2-0.1,0.2,0,0.3-0.1
		c0-0.1,0.4-0.1,0.5-0.2c0,0.3,0.3,0,0.4,0.2c0,0,0-0.1,0-0.1c0.1,0.2,0.2-0.1,0.3,0.1c-0.1-0.2,0.3-0.1,0.4,0.1
		c0.1-0.1,0.1-0.3,0.3-0.1c0-0.1,0-0.1,0-0.2c0.3-0.1,0.7,0.2,0.9,0c0.1,0.2,0.3,0.1,0.4,0c0.1,0.1,0.3,0.1,0.4,0
		c0.2,0.2,0.5,0.1,0.6-0.1c0,0.1,0,0.1,0,0.2c0.1,0.1,0-0.2,0.1-0.1c0,0.1,0,0.1,0,0.2c0.3-0.1,0.6-0.2,0.9,0.1c0,0,0,0,0,0.1
		c0.1,0,0.2-0.1,0.3-0.2c0,0.1,0,0.1,0.1,0.1c0-0.1,0.1-0.2,0.2-0.2c0,0.2,0.1,0.1,0.1,0.1c0.1,0.3,0.2-0.1,0.3-0.2
		c0.1,0.1,0.1,0.1,0.1,0c0.2,0.3,0.3,0,0.5,0.1c0.1,0.1,0.1,0.2,0.1,0.3c0.1-0.2,0.1,0.1,0.2,0.1c0-0.1,0-0.1,0-0.2
		c0.1,0.1,0.7-0.2,0.6,0.2c0-0.1,0.1,0,0.1,0.1c0,0.2-0.3,0.1-0.1,0c-0.2,0-0.3,0.2-0.5,0.1c-0.2,0.3-0.6-0.1-0.9,0.3
		c-0.1,0-0.1-0.2-0.2-0.2c0,0.1,0.1,0.1,0,0.2c-0.1-0.1-0.2-0.1-0.3-0.1c0,0.2,0,0.3,0.1,0.4c0.2-0.1,0.4-0.1,0.6,0.1
		c0.6-0.3,1-0.2,1.8-0.1c0.1-0.2,0.4,0.1,0.4-0.3c0.1,0.1,0.1-0.1,0.2-0.1c0.3,0.4,0.5,0.1,0.8,0.2c0,0-0.1-0.1,0-0.1
		c0.3,0.2,0.6-0.2,0.8,0.1c0.4-0.2,0.8-0.1,1.3-0.2c0,0.1,0,0.1,0,0.2c0-0.3,0.2-0.1,0.3-0.1c0.1-0.1,0.2-0.2,0.2-0.4
		c-0.2-0.3-0.5-0.2-0.6-0.3c-0.1,0.3-0.4-0.1-0.5,0.2c0-0.3-0.3,0.1-0.4-0.3c0.1,0,0-0.2,0.1-0.2c0.2,0,0.2,0.1,0.4,0.2
		c0.1,0,0.3-0.2,0.3-0.1c0,0.1-0.1,0.1,0,0.1c0.1,0,0.4-0.1,0.3-0.3c0.2,0,0.1,0,0.3,0c0,0.1-0.1,0.1,0,0.2c0.1-0.2,0.3-0.3,0.5-0.4
		c0.1,0.3,0.2,0.2,0.3,0.4c0,0.1-0.1,0-0.1,0.1c0.1,0.2,0.1-0.2,0.1,0C38.4,21,38,20.8,38,21.5c0.3,0.1,0.3-0.2,0.4-0.3
		c0,0.1,0,0.2,0.1,0.3c0.1-0.1,0.3-0.2,0.3,0c0.1-0.1,0.2-0.1,0.2-0.2c0.3,0.2,1-0.1,1.2,0.1c0.1,0,0-0.3,0.1-0.2
		c0,0,0.1,0.3,0.1,0.1c0-0.1,0.5,0,0.6,0.2c0.1-0.2,0.2-0.2,0.3-0.1c0-0.3,0.2-0.1,0.3-0.1c0.1-0.3,0.6,0,0.9,0c0.1,0,0.2-0.2,0.3,0
		c0.5-0.4,0.9,0,1.4-0.3c-0.2-0.5,0.3-0.8,0.6-1c0.2,0.1,0.3,0.1,0.6-0.1c0.1,0.1,0.1,0.3,0.2,0.4c-0.2,0.3-0.4,0.2-0.7,0.3l0,0.1
		l-0.1,0c0.1,0.2,0.4,0,0.6,0.3c0.1-0.1,0.2-0.1,0.4-0.2c0,0,0,0,0,0.1c0.1,0,0.1-0.1,0.2-0.1c0.1,0,0.1,0.1,0.2,0.1
		c0,0,0-0.1,0.1-0.1c0.1,0,0.2,0.1,0.2,0.2c0-0.3,0.2-0.1,0.3-0.2c0.2-0.1,0.1-0.1,0.1,0.1c0.2-0.1,0.4,0,0.6-0.2c0,0.1,0,0.1,0,0.2
		c0.3-0.2,0.6,0.1,0.9,0.1c0.1-0.1,0-0.2,0.1-0.2c0.2,0.1,0.3,0.1,0.4,0.3c0-0.4,0.2-0.4,0.4-0.5c0.1,0.1,0.2,0.4,0.3,0.3
		c-0.1,0,0-0.1,0-0.2c0.1,0.2,0.3,0.1,0.3,0c0,0.1,0.1,0.1,0.1,0.2c0.1-0.2,0.5,0,0.6,0.1c0-0.1,0-0.2,0-0.2c0.1,0.1,0.1,0,0.1-0.1
		c0.1,0.1,0.3,0,0.3,0.2c0.2-0.2,0.3,0.1,0.5,0.1c0.1-0.3,0.2-0.3,0.1-0.6c-0.3,0-0.5-0.4-0.9,0.1c-0.1-0.1-0.3-0.2-0.3-0.1
		c0,0,0,0,0,0.1c-0.1-0.1-0.2-0.1-0.3-0.2c0,0,0-0.1,0-0.1c0.5-0.3,0.8-0.2,1.3-0.1c0.1-0.4,0.3-0.4,0.6-0.4c0,0.1,0,0.2,0.1,0.3
		c0.2,0.1,0.3-0.2,0.4-0.1c0.2-0.3,0.6-0.3,0.9-0.2c0.1-0.1,0.5-0.2,0.8-0.2c0.2,0.4,1.2,0,1.4,0.1c0,0,0,0.1,0,0.1
		c0.2,0,0.4,0,0.5,0c-0.1,0,0.2-0.3,0.2-0.2c0.1,0.1,0.1,0.3,0.3,0.3c0-0.3,0.2,0,0.2-0.2c0.4,0.1,0.9-0.1,1.3-0.1
		c0-0.1,0-0.1,0-0.2c0.1,0.2,0.2,0.1,0.4,0.1c0,0.1,0,0.2,0,0.2c0-0.1,0-0.1,0-0.2c0.2,0,0.3-0.2,0.6-0.1c0.1-0.1,0.2-0.3,0-0.5
		c0.2-0.2,0.7-0.1,0.7-0.3c0.3,0,0.6,0,0.9-0.2c0.1,0.2,0.3,0,0.6,0c0,0,0,0.1,0,0.1c0-0.1,0.2,0,0.3-0.2l-0.1-0.1l0-0.1
		c-0.1-0.1-0.2-0.1-0.3-0.2c0.1-0.1,0.1-0.2,0-0.2c0,0.3-0.2,0.1-0.3,0.3c-0.1-0.1,0-0.2,0-0.3c-0.1,0-0.1,0-0.1-0.1
		c-0.1,0.4-0.1,0.3-0.3,0.1c-0.1,0.2-0.5-0.1-0.6,0.2c0.1-0.2-0.2,0-0.3,0c0-0.1,0.1-0.1,0-0.2c-0.2,0.3-0.5,0-0.7,0.2
		c-0.1-0.1,0-0.2-0.1-0.3c-0.1,0.1-0.3,0.2-0.3,0c-0.1,0-0.2,0.1-0.3,0c0,0.1,0.1,0.2,0,0.3c0-0.2-0.2-0.1-0.3-0.2c0,0,0-0.1,0-0.1
		c-0.1,0-0.3,0.2-0.3,0.1c0,0.1,0,0.2-0.2,0.2c0-0.1,0-0.4,0.1-0.4c0.1,0,0.5-0.1,0.7-0.1c0,0,0,0,0-0.1c0.2,0.1,0.4,0,0.5,0.1
		c0,0,0-0.1,0-0.1c0.4,0.2,0.8-0.3,1.2-0.2c0-0.1,0.1-0.1,0.1-0.1c0.6-0.2,1.4-0.2,1.9-0.4c-0.1,0-0.1-0.1-0.1-0.2
		c-0.8,0.1-1.4,0.3-1.8,0.3c0,0,0,0.1,0,0.1c-0.3-0.1-0.7,0.1-0.9-0.1c0,0.1-0.2,0.1-0.2,0.2c-0.3,0.1-0.8,0-1,0
		c0,0.2-0.3,0-0.4,0.2c-0.1-0.1,0-0.1,0-0.2c-0.3,0.1-0.7,0.2-0.9,0.1c0,0.1,0,0.1,0,0.2c-0.2-0.2-0.5,0.1-0.6-0.2
		c-0.1,0.3-0.4,0.1-0.6,0.1c0.1,0,0,0.1,0,0.1c-0.1-0.1-0.2-0.3-0.5-0.3c0-0.1-0.1-0.2-0.1-0.3c-0.3,0.1-0.7-0.3-1,0
		c-0.2-0.1-0.3,0-0.6,0.1c0-0.2-0.6,0-0.7-0.3c0,0.1,0,0.1-0.1,0.2c-0.1,0-0.1-0.1-0.1-0.2L52.5,16l0-0.1c-0.2,0,0-0.2,0-0.1l0.1,0
		l0.1,0c0.1-0.1,0.3,0.1,0.3-0.2c-0.2,0-0.1-0.4-0.2-0.5c-0.3,0-0.7,0.2-0.9,0c0,0.1,0,0.1,0,0.2c-0.7-0.1-1.1,0.1-1.7,0.1
		c0-0.1,0-0.1,0-0.2c0.1,0,0.2-0.1,0.3-0.2c0,0.1,0,0.1,0.1,0.1c0-0.3,0.1,0,0.2-0.2c0.1,0.2,0.3,0.1,0.4,0c0-0.1,0-0.1,0-0.2
		c0.3,0.3,0.4,0,0.7,0.1c0-0.1,0-0.1,0-0.2c0.1,0,0.1,0.2,0.2,0.2c0-0.3,0.3,0,0.3,0c0-0.1,0-0.1,0.1-0.2c0.4,0.1,0.9-0.1,1.2,0.1
		c0.4-0.2,1-0.2,1.3,0c0-0.1,0-0.1,0-0.2c0.1,0.1,0.2,0,0.3,0.2c0-0.1,0-0.2,0.1-0.2c0,0.1,0,0.1,0,0.2c0.1-0.2,0.4,0,0.5-0.1
		c0.1,0,0.1-0.2,0.1-0.2c0,0,0.1,0.1,0.1,0.2c0.2,0.1,0.5-0.1,0.4-0.2c0.1,0.3,0.3,0.1,0.6,0h0v-0.1c0-0.1,0-0.1,0-0.2
		c-0.4,0.1-0.6-0.1-0.8,0c0,0,0,0.1,0,0.1c0-0.1-0.1-0.2-0.2-0.3c-0.3,0.3-0.7,0-1,0.3c-0.1-0.2-0.1-0.2-0.3-0.2c0,0.1,0,0.1,0,0.2
		c-0.3-0.1-0.6-0.2-0.8-0.1c0,0,0.1,0,0.1,0.1c-0.4-0.1-0.8,0-1.2-0.2l0,0.1l-0.1,0c0,0.1-0.2,0.1-0.1-0.1c0,0,0,0,0,0.1
		c-0.2,0-0.2-0.1-0.4-0.1c0-0.1,0.1,0,0.1-0.2c0.2,0.1,0.2-0.1,0.3-0.1c0,0.1,0,0.2,0.1,0.2l0-0.1l0.1,0c0,0,0-0.1,0-0.1
		c0.2,0.1,0.4-0.2,0.6,0.1c0-0.1,0.1-0.1,0.1-0.2l-0.1-0.1l0-0.1c0-0.1,0.1-0.2,0-0.4c0,0,0,0,0.1-0.1c0.1,0.1,0.2,0,0.3-0.1
		c0.1-0.1,0.6-0.2,0.7-0.2c0,0,0.1,0.1,0.1,0.1c0,0,0.1-0.1,0.1-0.1c0.3,0,0.5,0,0.8,0.1c0.4-0.4,0.9,0.4,1.3-0.2
		c0.2,0.1,0.4,0,0.5,0.2c0.1-0.2,0.2-0.2,0.3-0.2c0-0.5-0.4-0.3-0.6-0.3c-0.3,0-0.6,0-0.9-0.1v0.1h0c-0.3-0.1-0.6,0-0.7-0.1l-0.1,0
		l-0.1,0c-0.5-0.1-0.7,0-1.1,0.3c-0.1-0.2-0.2-0.2-0.3-0.4c0,0.2-0.4,0.4-0.4,0.2c-0.1,0.1-0.3,0.1-0.4,0c0-0.2,0.2-0.1,0.1-0.4
		l0-0.1l0.1,0c-0.4-0.3-0.8-0.1-1.2-0.4l-0.1,0l-0.1,0c-0.1,0.2-0.3,0.1-0.3-0.2c0,0,0,0,0,0.1c0.1-0.1,0.1,0,0.2,0l0.1,0l0.1,0
		c0-0.1,0-0.1,0-0.1l0-0.1l0.1,0c0-0.1-0.2,0-0.2-0.2c0.1,0,0,0,0-0.2c-0.5-0.3-0.8,0-1.4,0c0-0.1,0.1-0.1,0-0.1
		c-0.3,0.3-0.6-0.1-0.8,0.3c-0.1-0.1,0.1-0.2-0.1-0.2c-0.1,0.2-0.4-0.1-0.5-0.3c-0.1,0-0.2,0.2-0.3,0c0-0.1,0-0.1,0.1-0.1
		c0.2,0.1,0.3-0.1,0.5-0.1c-0.1,0-0.1-0.2,0-0.2c0.1,0.1,0.1,0,0.2-0.1c0.2-0.2,0.3,0.2,0.5,0.1c0,0,0,0,0-0.1
		c0.4-0.1,0.8,0,1.3-0.3l-0.1,0l0.1,0c0-0.2,0-0.3,0.1-0.4c0.1,0.1,0.3,0,0.4-0.2c0.1,0.1,0.3,0.1,0.4,0.2c0.1-0.2,0.3-0.1,0.4-0.1
		c0,0,0.1-0.1,0.1-0.1c0.1,0,0.1,0.1,0.2,0.2c0,0,0-0.1,0-0.1c0.1,0,0.2,0.1,0.3,0.2c0-0.2,0.1-0.1,0.2-0.1c0-0.1,0-0.1,0.1-0.2
		c0.2,0.2,0.6-0.2,0.9,0c0-0.1-0.1-0.1,0-0.2c0.1,0.1,0.3,0,0.4,0.1V9.6h0c0.1,0.1,0.3-0.1,0.4,0.1c0-0.1,0.1-0.1,0.1-0.2
		c0.1,0.1,0.1,0,0,0.2c0.2,0,0.2-0.2,0.3-0.2c0,0,0,0.1,0,0.1c0.2-0.1,0.4,0,0.6-0.1l0,0l0,0c0.1,0,0.1-0.1,0.1,0l0-0.1l0.1,0
		c0.1,0.1,0.2,0,0.4,0.1c0.1-0.2-0.1,0-0.1-0.2c0.1,0,0.1-0.2,0.1-0.2c0.1,0.2,0.2-0.1,0.3,0.1l0-0.1c0,0.1,0,0.2,0.1,0.2
		c0.1,0.1,0.1,0,0.2-0.1l-0.1-0.1c0.1,0,0.1-0.1,0.2-0.2c0.5,0.2,1.1-0.2,1.6-0.1c0-0.1,0-0.1,0-0.2c0.2,0.2,0.4,0,0.6-0.2
		c0.2,0.2,0.4,0,0.6-0.1c0.2,0.2,0.3,0.1,0.6,0.1c0-0.1,0-0.1,0-0.2c0.1,0.2,0.5-0.1,0.6,0.2c0-0.1,0-0.1,0-0.3
		c-0.1,0-0.2,0-0.2-0.2c-0.4,0-0.8,0.2-1.3,0.1c-0.2,0.3-0.3,0-0.6,0.2c0-0.1-0.1-0.2-0.1-0.3c0.1-0.1,0.2,0.2,0.2,0.1
		c-0.1-0.3,0.3-0.1,0.4-0.3c0,0.1,0.1,0.1,0.1,0.2c0-0.2,0.1-0.1,0.2-0.1c0,0,0-0.1,0-0.1c0.3-0.1,0.8,0,1-0.3
		c0.1,0.1,0.2,0.1,0.3,0.2c0-0.3,0.3,0.1,0.4-0.3c0.4,0.2,0.8-0.2,1.2,0.1c0.2-0.2,0.5-0.2,0.7-0.2c0,0.1,0,0.2,0.1,0.3
		c0.1,0,0.1-0.1,0.1,0l0.1,0l0.1,0c0.1,0,0.1,0,0.2,0c0,0.1,0,0.1,0,0.2l0.1,0.1l0,0.1c0.2,0.1,0.5-0.1,0.7,0.1c0-0.2,0-0.2,0.1-0.3
		c-0.1,0.1,0,0.1,0.1,0.2c0-0.1,0.1-0.1,0.1-0.2c0,0.1,0,0.1,0.1,0.1c0.3-0.3,1-0.1,1.4-0.4l0-0.1L67,7.4c-0.1-0.2-0.3,0.1-0.4-0.1
		l-0.1,0l-0.1,0c-0.1,0,0,0.3-0.1,0.2c0-0.2,0-0.2,0-0.4c0,0,0,0,0,0c0,0,0,0.1,0.1,0.1l0-0.1l0.1,0c0-0.1,0.2,0,0.2-0.2l-0.1,0
		l0-0.1c-0.1-0.1,0.1,0,0-0.2V6.7h0c-0.1-0.1,0-0.2,0.1-0.1c0,0,0,0.1,0,0.1v0.1h0c0,0.1,0,0.1,0,0.2L67,7L66.9,7
		C67,7.1,67.1,7,67.3,7c0,0,0-0.1,0-0.1c0-0.2-0.1-0.1-0.1-0.2c0.1,0,0.1-0.1,0.1-0.1c0,0.2,0,0.3,0.1,0.3c-0.1-0.4,0.1,0.1,0.2-0.2
		c-0.1-0.1,0-0.3-0.1-0.4c-0.1,0-0.1,0.1-0.3,0.1c0-0.1,0-0.1,0-0.1c0-0.1,0-0.1,0.1-0.2c0.1,0,0.2,0,0.3-0.1
		c0.3,0.2,0.7-0.2,0.9-0.1c0-0.1-0.1-0.2,0-0.3l0-0.1l0-0.1C68.5,5.7,68.5,5.6,68.5,5.6z M69,4.7c-0.1,0-0.1-0.1-0.1-0.1
		C68.9,4.5,69,4.6,69,4.7z M68.2,4.4C68,4.5,68,4.4,67.8,4.4C67.9,4.3,68.2,4.2,68.2,4.4z M2.2,5.4c0.1-0.1,0.2,0,0.2,0.1L2.2,5.4z
		 M1.4,10C1.4,10,1.4,10,1.4,10c-0.1,0-0.1-0.1-0.1-0.1c0,0,0,0,0.1,0C1.4,9.9,1.4,9.9,1.4,10z M3.7,17.3c0,0,0,0,0-0.1L3.7,17.3
		l-0.1-0.2c0,0,0-0.1,0-0.1c0-0.1,0.2-0.1,0.1,0.1l0.1,0l0,0.1c0,0,0.1,0,0.1-0.1C3.9,17.2,3.6,17.2,3.7,17.3z M8,21.7
		C7.9,21.7,7.9,21.7,8,21.7c-0.1,0-0.1-0.1-0.1-0.1c0,0,0.1,0,0.1,0C8,21.6,8,21.6,8,21.7z M8.1,21.7C8.1,21.7,8.1,21.7,8.1,21.7
		C8,21.6,8,21.6,8,21.6c0,0,0,0,0.1,0C8.1,21.6,8.1,21.6,8.1,21.7z M51.8,13.9c0.1,0,0.1,0.2,0.2,0.2c-0.1,0.2-0.2,0.1-0.4,0.1
		C51.6,14,51.8,14,51.8,13.9z M50.6,14C50.8,14,50.7,14.2,50.6,14L50.6,14z M20.3,2.6L20.3,2.6c-0.2,0.1-0.2-0.1-0.3,0
		C20,2.4,20.2,2.5,20.3,2.6l0-0.1L20.3,2.6c0.1-0.1,0.1-0.1,0.1-0.2C20.4,2.4,20.4,2.7,20.3,2.6C20.3,2.6,20.3,2.6,20.3,2.6
		L20.3,2.6z M20.6,2.5c0-0.2,0.1-0.2,0.3-0.2C20.9,2.7,20.8,2.5,20.6,2.5z M21.7,2.5c0-0.2,0.1-0.1,0.1-0.1l0-0.1l0.1,0
		c0-0.1,0.1-0.1,0.1-0.1l0.1,0c0,0,0,0.1,0.2,0c0,0.1,0.1,0.2,0,0.3c-0.1-0.1-0.1-0.1-0.2-0.2l0,0l0,0c0,0-0.1,0-0.1,0l-0.1,0
		C21.8,2.5,21.8,2.4,21.7,2.5z M53.4,3c0.1,0,0.2,0.1,0.2,0.1l-0.3,0C53.4,3,53.4,3,53.4,3z M37.9,3.1C37.9,3.1,37.9,3.1,37.9,3.1
		l-0.5,0.1C37.6,3.1,37.7,3,37.9,3.1z M33.3,3.1c0-0.1,0.1-0.1,0.1-0.2c0,0.1,0.1,0,0.1,0.2c0.3-0.2,0.5,0,0.8,0
		c0.2,0,0.5,0,0.7-0.1c0.6,0,1.1,0.1,1.7,0.1l-4.6-0.1C32.5,2.9,33,3,33.3,3.1z M32,3.1l-0.3,0c0,0,0,0,0,0C31.9,3,31.9,3,32,3.1z
		 M24.3,2.2c-0.1,0.1,0.1,0.2,0.1,0.1c0,0.2-0.4,0.3-0.5,0C24,2.2,24.2,2.3,24.3,2.2z M18.9,1.9L18.9,1.9L18.9,1.9
		c0.1,0,0.1-0.1,0.2-0.1h0v0.1c0,0,0.1-0.1,0.1-0.1c0.1,0,0.2,0.1,0.3,0.2c0.4-0.1,1-0.1,1.5-0.1l0-0.1c0,0,0.1,0,0.9,0
		c-0.1-0.1,0.4-0.2,0.4,0c0-0.2,0.1,0,0.1,0c0.1,0,0.1-0.1,0.1-0.1c0.2,0,0.5,0.1,0.4,0.1c0-0.1,0.1,0,0.1,0.1
		c0,0.2-0.1,0.2-0.3,0.2c0-0.1,0-0.2,0-0.2c-0.1,0,0,0.1,0,0.2c-0.6,0.1-1,0.2-1.3-0.2c-0.1,0.2-0.2,0.1-0.3,0l0,0.1l-0.1,0
		C21,2,21,2,20.9,2c0,0-0.2,0-0.4,0c-0.2,0-0.6,0.1-0.8-0.1c0,0.2-0.3,0.1-0.4,0.2c0-0.1-0.1-0.2-0.1-0.2l-0.1,0l0-0.1
		c0,0-0.1,0-0.1,0.1L19,2l-0.1,0c-0.1,0.1-0.3-0.1-0.4-0.1C18.6,1.8,18.8,1.8,18.9,1.9z M17.2,2.6C17.2,2.6,17.2,2.6,17.2,2.6
		c0.1,0.1,0.1,0.1,0.1,0.2c0,0-0.1,0-0.1,0C17.1,2.7,17.2,2.7,17.2,2.6z M16.3,1.9C16.3,2,16.2,2,16.1,2C16.2,1.9,16.2,1.9,16.3,1.9
		z M15.6,2L15.6,2L15.6,2c0.1-0.1,0.1-0.1,0.2-0.1l0.1,0c0,0,0,0.1,0.2,0.1c0,0.1-0.1,0.1-0.1,0l0,0l0,0c0,0,0,0,0,0H15.6L15.6,2
		c0,0.1,0,0.1,0,0.2c-0.1,0-0.1-0.2-0.2-0.2C15.4,1.8,15.5,2,15.6,2z M15.1,2.1C15,2,15.3,2,15.1,2.1L15.1,2.1z M14.8,2.2
		c-0.1-0.1-0.3-0.1-0.3-0.3C14.6,2,14.8,2,14.8,2.2z M13.9,2C13.9,2,13.9,2,13.9,2c0.1,0.1,0.1,0.1,0.1,0.2c0,0,0,0-0.1,0
		C13.9,2.1,13.9,2,13.9,2z M13.4,2C13.4,2,13.4,2,13.4,2c0.1,0.1,0.1,0.1,0.1,0.2c0,0-0.1,0-0.1,0C13.3,2,13.4,2,13.4,2z M12.2,2
		c0-0.2,0.2,0.2,0,0.1C12.2,2.1,12.3,2,12.2,2z M9.2,1.7C9.2,1.6,9.2,1.6,9.2,1.7L9.2,1.7C9.2,1.7,9.2,1.7,9.2,1.7
		C9.1,1.7,9.2,1.6,9.2,1.7z M8.9,21.6c-0.1-0.1,0.1-0.1,0.1-0.1C9.2,21.6,9,21.6,8.9,21.6z M12.9,21.9
		C12.9,21.9,12.9,21.9,12.9,21.9L12.9,21.9h-0.1c-0.1,0-0.1,0.1-0.1,0.1l-0.1,0l0-0.1c-0.1,0-0.1-0.2,0-0.1c0,0,0,0,0,0l0,0l0,0
		c0.1,0,0.1-0.1,0.1,0l0.1,0l0.1,0c0.1,0,0.1,0,0.2,0C13,21.9,12.9,21.9,12.9,21.9z M13.7,21.9L13.7,21.9c-0.1,0-0.1,0-0.3,0.1
		c0-0.1,0-0.1,0-0.2c0.1,0,0.2-0.2,0.3-0.1C13.6,21.9,13.6,21.8,13.7,21.9L13.7,21.9v-0.1c0,0,0,0,0,0c0,0,0,0,0.1,0
		C13.8,21.8,13.7,22,13.7,21.9z M14.5,21.9C14.4,21.9,14.4,21.9,14.5,21.9c-0.1,0-0.1-0.2,0-0.2c0,0,0,0,0,0.1h0
		C14.5,21.8,14.5,21.8,14.5,21.9L14.5,21.9z M15.1,21.8L15.1,21.8L15.1,21.8c-0.1,0.2-0.2,0-0.3-0.1c-0.1,0.1,0.1,0.2-0.1,0.1
		l-0.1,0l0-0.1c0,0-0.1,0.1-0.1,0.1l0-0.1c0.1,0,0.1-0.1,0.1,0l0-0.1l0.1,0c0-0.1,0,0,0.1,0c0.1,0-0.1-0.1,0-0.2
		c0.1,0,0.1,0.1,0.1,0.2c0,0,0,0,0.1,0l0-0.1l0.1,0C15,21.5,15.2,21.8,15.1,21.8z M34.8,21.2c0,0,0-0.1,0-0.2c0,0-0.1,0.1-0.1,0
		C34.7,21.1,34.8,21.1,34.8,21.2c-0.2,0-0.2-0.1-0.2,0.1c-0.1,0-0.1-0.1-0.1,0c0,0,0-0.1,0-0.2c0,0.1-0.2,0.1-0.2,0.2
		c-0.1-0.2-0.4,0-0.5-0.2c-0.1,0,0,0.1-0.1,0.1c0-0.1,0-0.1,0-0.2c-0.1,0,0,0.2-0.2,0.2c-0.1-0.1,0-0.1,0-0.2
		c0.1-0.2,0.2-0.2,0.3-0.1c0,0,0-0.1,0-0.2c0.1,0.1,0.4,0,0.5,0.2c0.1,0,0.1-0.1,0.1-0.2c0.1,0,0.3,0,0.4,0c0.1,0.1,0,0.2,0,0.3
		c0.1-0.1,0.1,0.1,0.2-0.1c0.1,0,0,0.2,0.1,0.2C35,21.3,34.9,21.1,34.8,21.2z M35.8,20.7c0,0.1-0.1,0.2-0.1,0.3
		c-0.2,0.1-0.2-0.2-0.1-0.4c0.1,0.1,0.2,0,0.2-0.3c0.1,0,0.2,0.2,0.2,0.4C36,20.9,35.9,20.7,35.8,20.7z M39,20.9
		c0-0.2,0-0.3-0.1-0.4v0.1h0c-0.1,0-0.1-0.1-0.1-0.1c0-0.1,0.1,0,0.1,0l0-0.1l0.1,0c0,0,0,0,0-0.1c0.2,0,0-0.1,0.1-0.2
		c0.2,0.2,0.3,0.2,0.5,0.2c0,0.1,0,0.2,0,0.3C39.3,20.8,39.3,20.9,39,20.9z M49.9,14.2c0,0-0.1-0.1-0.1-0.2
		C49.9,14,49.9,14.1,49.9,14.2z M49.5,14.1c0.1,0,0.1,0.1,0.1,0.2c0,0,0-0.1-0.1-0.1C49.5,14.1,49.5,14.1,49.5,14.1z M49.7,15.1
		c0,0,0,0.1,0.1,0.2c-0.1,0.2-0.3,0-0.3-0.1C49.5,15.2,49.7,15.2,49.7,15.1z M49.2,14.2c0,0-0.1-0.1,0-0.2
		C49.2,14,49.4,14.3,49.2,14.2z M50.5,9.6C50.6,9.8,50.4,9.8,50.5,9.6L50.5,9.6z M53.6,8.8c0-0.2,0.2-0.1,0.3-0.2
		C53.8,8.8,53.7,8.8,53.6,8.8z M54.4,8.7c0,0-0.1,0-0.1,0c0,0,0-0.1,0-0.1c0.1,0,0.1,0,0.1,0C54.4,8.7,54.4,8.7,54.4,8.7z M54.6,8.7
		c0,0-0.1,0-0.1,0c0,0,0-0.1,0-0.1c0,0,0.1,0,0.1,0C54.6,8.7,54.6,8.7,54.6,8.7z M55.6,7c-0.1,0-0.1-0.1-0.1-0.2
		C55.5,6.9,55.6,6.9,55.6,7z M55.8,7c-0.1,0-0.1,0-0.1-0.1c0-0.1,0.1-0.1,0.1-0.1C55.8,6.9,55.8,6.9,55.8,7z M56.1,6.8l0.1,0
		c0,0,0,0,0,0C56.2,6.8,56.1,6.8,56.1,6.8z M56.4,6.9c0,0,0-0.1,0-0.1l0.1,0c0,0,0,0.1,0,0.1C56.5,6.9,56.4,6.9,56.4,6.9z M66,7.5
		c0-0.1,0-0.1,0-0.2c0,0,0.1,0.1,0.1,0.1C66.1,7.5,66.1,7.6,66,7.5z"/>
	<path d="M2.7,17.8C2.7,17.8,2.7,17.8,2.7,17.8C2.7,17.7,2.7,17.8,2.7,17.8z"/>
	<path d="M6.8,1.8c0,0.1,0,0.1,0,0.2h0h0C6.8,1.9,6.8,1.8,6.8,1.8z"/>
	<path d="M7.8,1.9C7.8,1.9,7.8,1.9,7.8,1.9L7.8,1.9l0.1-0.2c0-0.1,0-0.1-0.1-0.1c0,0.1,0,0.1,0,0.2l0.1,0L7.8,1.9z"/>
	<path d="M27.9,1.3L27.9,1.3V1.2c-0.1,0-0.5-0.2-0.6,0l0.1,0.1l0,0.1C27.4,1.5,27.8,1.5,27.9,1.3z"/>
	<path d="M25.8,1.8l0,0.1l0,0.1C25.8,2.1,26,2,26,2L25.8,1.8H26C26,1.7,25.8,1.7,25.8,1.8z"/>
	<path d="M26.1,1.8L26.1,1.8L26,1.9C26,2,26.1,2,26.1,2l0.1,0l0,0.1C26.3,2.2,26.4,2,26.5,2l-0.1-0.1l0-0.1
		C26.3,1.7,26.2,1.8,26.1,1.8z"/>
	<path d="M27.8,2c0-0.1,0.1-0.1,0.1-0.2l-0.1,0l0-0.1c0,0-0.1,0-0.1,0l0,0.1l-0.1,0C27.6,1.9,27.7,2,27.8,2l0,0.2
		C27.9,2.2,27.8,2.1,27.8,2L27.8,2z"/>
	<path d="M28.1,1.7L28.1,1.7v0.2c0.1,0.2,0.3,0.1,0.3,0.2c0,0,0,0,0,0.1c0.1,0,0.1-0.2,0.1-0.3l0-0.1l0-0.1c0,0,0,0,0,0
		c0-0.1,0.1-0.1,0-0.2C28.4,1.8,28.2,1.5,28.1,1.7z"/>
	<path d="M29.4,1.8L29.4,1.8l0.1-0.1c-0.1-0.2-0.3-0.1-0.4,0l0,0.1l0,0.1C29.2,1.9,29.3,1.9,29.4,1.8z"/>
	<path d="M29.7,1.7L29.7,1.7L29.7,1.7C29.6,1.7,29.7,1.8,29.7,1.7z"/>
	<path d="M29.5,1.7L29.5,1.7L29.5,1.7C29.6,1.6,29.5,1.6,29.5,1.7z"/>
	<path d="M29.7,1.9c0.1-0.1,0.2,0.1,0.2,0c0,0-0.1-0.1-0.1-0.1c0.1,0,0.2,0.3,0.3,0.1c-0.1,0,0-0.1,0-0.2l-0.1-0.1l0-0.1
		c-0.1-0.1-0.1,0-0.3,0l0,0.1l-0.1,0C29.7,1.8,29.8,1.8,29.7,1.9z"/>
	<path d="M31,2.1c0.1-0.2,0.4-0.2,0.4-0.5c-0.3,0-0.5,0-0.8,0.1l0.1,0.1l0,0.1C30.7,1.9,30.8,1.9,31,2.1z"/>
	<path d="M60.7,4.7L60.7,4.7c0,0,0.1,0,0.1,0L60.7,4.7c0-0.2-0.1-0.2-0.2-0.3c0,0.2-0.2,0.1-0.2,0.2l0.1,0.1l0,0.1
		C60.6,4.8,60.6,4.9,60.7,4.7z"/>
	<path d="M62.5,4.5L62.5,4.5l0-0.2c-0.1,0-0.4,0.1-0.3-0.1c-0.2,0.1-0.6,0-0.9,0.2c-0.1,0-0.1-0.1-0.2-0.1c0,0.2-0.3,0.1-0.3,0.3
		l0.1,0l0,0.1C61.5,4.8,61.9,4.7,62.5,4.5z"/>
	<path d="M63.1,4.5c0.2,0.2,0.5,0.1,0.8,0l0-0.1L64,4.3c-0.2-0.2-0.5,0-0.7,0v0.1c-0.2,0-0.3,0-0.5,0L63.1,4.5
		C63.2,4.5,63.2,4.5,63.1,4.5z"/>
	<path d="M64.2,7.9c-0.1-0.1-0.3,0-0.3,0.2l0.1,0l0,0.1C64,8.2,64,8.3,64,8.3c0-0.2,0.1-0.2,0.2-0.3L64.2,7.9L64.2,7.9z"/>
	<path d="M63.9,8.1c0-0.1,0-0.1,0-0.2c-0.2,0-0.2,0-0.4,0c0,0.1,0,0.1,0,0.2l0.1,0.1l0,0.1c0.2-0.1,0.4,0.2,0.5-0.1h-0.1V8.1z"/>
	<path d="M53.9,12.1c-0.1-0.3-0.3-0.2-0.4,0l0,0.1l-0.1,0C53.6,12.5,53.7,12.1,53.9,12.1z"/>
	<path d="M55.2,12.3c0,0.1,0.2,0.2,0.2,0.3l0.1,0l0.1,0c0.1,0.1,0.1-0.1,0.2,0.1c0-0.4-0.3-0.4-0.4-0.5l0,0.1l-0.1,0.1
		C55.3,12.2,55.2,12.2,55.2,12.3z"/>
	<path d="M54.5,12.3c0.1,0,0.3,0.1,0.4,0.2c0-0.1,0.1-0.2,0.1-0.1c0-0.1,0-0.1,0-0.2L55,12.1l0-0.1C54.7,12,54.6,12.1,54.5,12.3z"/>
	<path d="M54.3,14c-0.1-0.1,0.1-0.1,0.2-0.2c-0.1-0.1-0.3-0.2-0.3,0.1l0.1,0.1l0,0.1C54.3,13.9,54.3,14.1,54.3,14z"/>
	<path d="M57.5,14.2c-0.2,0.1-0.3-0.1-0.4,0.2h0v0.1c0,0.1,0,0.1,0,0.2c0.1,0,0.2,0,0.3,0.1c0-0.1,0.1-0.1,0.1-0.2l-0.1,0l0-0.1
		C57.5,14.3,57.5,14.2,57.5,14.2z"/>
	<path d="M62.1,17.9c0.1,0,0.6,0.1,0.7-0.1c-0.1-0.2-0.5-0.1-0.7-0.1L62.1,17.9L62.1,17.9z"/>
	<path d="M29.2,21.8c-0.2-0.3-0.5-0.1-0.7-0.2c-0.1,0-0.1-0.1-0.1-0.1c0,0-0.2,0.2-0.2,0.1c0,0.2,0,0.3-0.1,0.4l0.1,0.1l0,0.1
		c0.1,0.1,0.2-0.1,0.2,0.1c0.1-0.4,0.7,0,0.9-0.2L29.2,21.8L29.2,21.8z"/>
	<path d="M2.5,16.7c0,0.1,0,0.2,0.1,0.2c0-0.1,0.1-0.1,0.1-0.2h0v-0.1C2.6,16.7,2.6,16.7,2.5,16.7z"/>
	<path d="M1.6,14.6L1.6,14.6L1.6,14.6c-0.1,0.1-0.1,0-0.2,0.1c0,0.3,0,0.5,0.3,0.5C1.6,14.8,1.8,14.9,1.6,14.6z"/>
	<path d="M25.9,2.3c0-0.1-0.1-0.1-0.1-0.2C25.7,2.1,25.8,2.2,25.9,2.3L25.9,2.3L25.9,2.3z"/>
	<path d="M12,22.3C11.8,22,11.7,22.3,12,22.3L12,22.3z"/>
	<path d="M31.1,21.5c0-0.3-0.6,0.1-0.7-0.2c-0.1,0.3-0.4,0-0.5,0.2c-0.1-0.2-0.2,0-0.4-0.1c0,0,0,0.1,0,0.1l0,0l0,0c0,0,0,0,0,0
		c0,0.1,0,0.2,0,0.2l-0.1,0c-0.1,0-0.2,0.2-0.1,0.2c0-0.1,0.1,0.1,0.2,0.1c0-0.1,0-0.1,0.1-0.2c0.1,0.2,0.3-0.1,0.4,0
		c-0.1,0,0-0.1,0-0.1c0.5,0.2,0.5,0.1,1,0.1c0-0.1,0-0.2,0-0.3L31.1,21.5L31.1,21.5z M29.6,21.8l0-0.1
		C29.6,21.7,29.6,21.8,29.6,21.8z"/>
	<path d="M3.3,2.5C3.3,2.5,3.4,2.5,3.3,2.5C3.5,2.8,3.4,2.4,3.3,2.5z"/>
	<path d="M1.1,14c0-0.1,0-0.1-0.1-0.2C1,13.9,1,14.1,1.1,14z"/>
	<path d="M1.2,3.7c0,0-0.1,0.1-0.1,0.1C1.1,3.8,1.3,3.7,1.2,3.7z"/>
	<path d="M1.2,5.6c0.1,0,0.1-0.1,0.2-0.1C1.3,5.4,1.2,5.6,1.2,5.6z"/>
	<path d="M1.5,7.5c-0.1,0,0-0.2-0.2-0.2C1.3,7.4,1.5,7.6,1.5,7.5z"/>
	<path d="M1.3,16.6c0,0.1,0.1,0.2,0.1,0.1C1.4,16.7,1.4,16.6,1.3,16.6z"/>
	<path d="M1.3,13.3c0,0.1,0.1,0.3,0.1,0.2C1.3,13.5,1.4,13.3,1.3,13.3z"/>
	<path d="M1.5,8.5c0-0.1,0.1-0.2,0-0.1C1.5,8.4,1.5,8.7,1.5,8.5z"/>
	<path d="M1.7,5.9c0,0-0.2,0.2,0,0.2C1.7,6.1,1.8,6,1.7,5.9z"/>
	<path d="M1.7,17.9c0,0.1,0,0.1,0,0.2c0.1-0.1,0.1,0.2,0.1,0.1C1.7,18.1,1.8,17.8,1.7,17.9z"/>
	<path d="M1.7,15.7C1.7,15.7,1.8,15.7,1.7,15.7C2,16,1.8,15.6,1.7,15.7z"/>
	<path d="M2.1,2.4c0.1-0.1,0.2,0.1,0.2,0c0,0-0.1-0.1-0.1-0.2C2.1,2.3,2.1,2.3,2.1,2.4z"/>
	<path d="M2.5,19.1C2.7,19.1,2.5,18.9,2.5,19.1L2.5,19.1z"/>
	<path d="M2.6,1.1c0,0,0.1-0.2,0-0.1C2.5,0.9,2.5,1.2,2.6,1.1z"/>
	<path d="M2.6,17.9C2.6,17.9,2.6,17.9,2.6,17.9C2.6,17.9,2.6,18,2.6,17.9c0.1,0,0.1-0.1,0.1-0.1C2.7,17.9,2.6,17.9,2.6,17.9z"/>
	<path d="M3.2,21c0.1,0,0.1,0.1,0.2,0.2C3.4,21,3.2,20.9,3.2,21z"/>
	<path d="M3.3,2.4C3.1,2.6,3.5,2.2,3.3,2.4L3.3,2.4z"/>
	<path d="M4.3,21.2C4.5,21.5,4.5,21.1,4.3,21.2L4.3,21.2z"/>
	<path d="M5,1.4C4.8,1.6,4.9,1.8,5,1.4L5,1.4z"/>
	<path d="M5.1,20.2c0,0.1-0.1,0-0.1,0.2C5.1,20.4,5.2,20.2,5.1,20.2z"/>
	<path d="M6.7,1C6.6,1.1,7,0.8,6.7,1L6.7,1z"/>
	<path d="M7.1,1.1c0-0.1,0-0.2-0.1-0.2C7,1,7,1.1,7.1,1.1C7.1,1.1,7.1,1.1,7.1,1.1z"/>
	<path d="M7.2,0.7C7.3,0.9,7.4,0.8,7.2,0.7L7.2,0.7z"/>
	<path d="M8.3,22.3c0,0,0.2-0.1,0.1-0.1C8.3,22.3,8.3,22.3,8.3,22.3z"/>
	<path d="M8.8,22.5C8.8,22.5,8.9,22.4,8.8,22.5C8.8,22.5,8.8,22.7,8.8,22.5C8.8,22.5,8.8,22.5,8.8,22.5z"/>
	<path d="M8.9,1.2c0-0.1,0-0.1,0-0.1c0,0,0,0,0-0.1C8.8,1.1,8.9,1.3,8.9,1.2z"/>
	<path d="M9.3,0.7C9.2,0.8,9.3,1,9.3,0.7L9.3,0.7z"/>
	<path d="M10.2,1.3c0,0,0-0.1-0.1-0.1c0,0.2-0.1,0-0.1,0C9.9,1.4,10.2,1.4,10.2,1.3z"/>
	<path d="M10.5,1.3c0-0.1,0-0.1-0.1-0.2C10.4,1.3,10.5,1.5,10.5,1.3z"/>
	<path d="M35.5,1.6c-0.5-0.1-0.9,0-1.2,0.1l0.1,0.1l0,0.1c0.1,0,0.1,0.1,0.2,0.2c0-0.2,0.1,0,0.2,0.1c0-0.2,0.4-0.1,0.3,0
		C35.1,2,35.2,2,35.3,1.9c0,0.1,0,0.2,0.1,0.2c0.1-0.1,0.3-0.1,0.4-0.2c0.2,0.2,0.4-0.1,0.6,0c0.1,0,0.1,0.3,0.2,0.2
		c0.2-0.2,0.6,0.1,0.7,0c-0.1-0.1,0.2-0.2,0.4-0.2l-0.1-0.1l0-0.1c-0.1-0.1-0.2,0-0.2,0c0,0,0-0.1,0-0.1c0,0,0,0.1,0,0.1
		c-0.2,0-0.4-0.1-0.6-0.1C36.4,1.7,36,1.6,35.5,1.6z"/>
	<path d="M33.5,1.6L33.5,1.6l-0.1,0.1c0,0.1,0.1,0,0,0.2c0.2,0,0.4,0.2,0.7,0.1c-0.1,0-0.1-0.1,0-0.1l0-0.1l0-0.1
		C33.9,1.6,33.7,1.4,33.5,1.6z"/>
	<path d="M33.1,1.5c0.1,0.2-0.1,0-0.1,0.2l0.1,0l0,0.1c0.1,0,0,0.1,0.1,0.2c0-0.2,0.3,0.1,0.3-0.2h-0.1V1.6
		C33.2,1.5,33.2,1.5,33.1,1.5z"/>
	<path d="M38.2,1.9c0,0.3,0.3,0.2,0.3,0.1c0.1,0.3,0.4,0,0.7,0.3c0-0.2,0.1-0.2,0.2-0.2c0,0.1-0.1,0.1,0,0.1c0-0.2,0.1,0.1,0.2,0
		c0.1-0.1,0.2-0.2,0.2-0.4c-0.2,0-0.2-0.1-0.3-0.2c-0.1,0.3-0.5,0.2-0.9,0.2c0,0,0-0.1,0-0.1c-0.1,0.1-0.4,0.1-0.5,0.2L38.2,1.9
		L38.2,1.9C38.2,1.9,38.2,1.9,38.2,1.9z"/>
	<path d="M32.6,1.2C32.8,1.2,32.7,1,32.6,1.2L32.6,1.2z"/>
	<path d="M36.4,1.2c0.1,0.1,0.3,0,0.3-0.2c-0.1,0-0.2,0-0.3,0L36.4,1.2L36.4,1.2z"/>
	<path d="M36.1,1.2c0,0.1,0.3,0.1,0.3,0.1c0,0,0,0,0-0.1l-0.1-0.1l0-0.1c-0.1-0.1-0.1,0-0.2,0L36.1,1.2L36.1,1.2z"/>
	<path d="M36.1,1.2L36.1,1.2l0-0.2c0-0.1-0.2,0-0.2,0C35.9,1.2,36,1.3,36.1,1.2z"/>
	<path d="M40.6,2.1c0.1,0.2,0.4,0,0.5-0.1c0.1,0.2,0.6,0.2,0.8,0.3c-0.2-0.1,0.2,0,0.1-0.2c0.4,0.2,0.8-0.1,1.2,0.1
		c0-0.1,0.1-0.1,0-0.2l0-0.1l0.1,0c-0.9-0.1-1.7-0.2-2.5-0.1c0-0.1-0.1-0.1-0.1-0.3c-0.2,0.1-0.4,0.2-0.6,0.3
		C40.2,2.2,40.5,2.2,40.6,2.1z"/>
	<path d="M43.4,2.2c0.3-0.1,0.7,0.1,1,0.1c0.3,0,0.6-0.1,0.9,0c0.1,0,0.1-0.1,0.2-0.2c0,0.3,0.3,0.1,0.4,0c-0.3-0.1-0.4-0.3-0.8-0.2
		c0-0.1,0-0.2-0.2-0.2c-0.1,0.2-0.4,0.1-0.5,0.1c-0.1,0.1-0.8-0.1-1.1,0.1l0,0.1l0,0.1C43.4,2.1,43.4,2.2,43.4,2.2z"/>
	<path d="M47.1,1.5c0-0.1,0-0.1,0-0.2l0.1,0c0,0,0,0-0.1-0.1c0,0,0,0-0.1,0l0-0.1C47,1.1,47,1,46.9,1c-0.1,0.1-0.2,0.1-0.3,0.2
		c0.1,0,0,0.1,0,0.2l0,0.1l0,0.1C46.7,1.5,46.9,1.4,47.1,1.5z"/>
	<path d="M47.9,1.3L47.9,1.3l0-0.2c-0.1-0.5-0.5,0-0.8,0.1l0,0.1l0,0.1C47.4,1.5,47.8,1.5,47.9,1.3z"/>
	<path d="M48.2,1.3C48.2,1.3,48.3,1.2,48.2,1.3c0.1,0,0.1,0.1,0.2,0.1c0.2,0,0.5-0.2,0.7,0.1c0.1-0.1,0.2-0.2,0.4-0.1
		c0.1-0.1,0.2-0.2,0.4-0.2c0-0.4-0.5-0.2-0.7-0.1c-0.2-0.1-1-0.2-1.1,0l0,0.1l0,0.1C48.2,1.2,48.2,1.3,48.2,1.3z"/>
	<path d="M46.3,1.3L46.3,1.3l0-0.2c-0.1-0.1-0.2-0.1-0.3,0C45.9,1.4,46.2,1.5,46.3,1.3z"/>
	<path d="M60,2.5c0.1-0.1,0.2,0.1,0.3,0.1c0.2,0,0.1-0.1,0.2,0c0,0,0.2-0.1,0.2-0.1c0.1,0,0.2,0.2,0.3,0.2c0.2,0,0.5-0.1,0.6-0.1
		c0.2,0,0.4,0,0.6-0.1c0.1,0,0.4-0.1,0.6-0.1c0.1,0,0.2,0.1,0.3,0.1c0.2,0,0.3-0.2,0.4,0c0-0.2,0.1-0.1,0.3-0.2
		c0-0.2-0.2-0.1-0.3-0.4c0,0,0,0,0-0.1l-0.1,0c0-0.1,0-0.2,0-0.2h0c0-0.1,0.1,0,0.1-0.1l-0.1-0.1l0-0.1c-0.4-0.2-0.7-0.1-1.2,0
		c0,0,0.2,0.2,0.1,0.2c-0.1-0.1-0.1-0.4-0.3-0.3c-0.1,0,0,0.1-0.1,0.2l0.1,0l0,0.1c0,0.1,0.1,0.1,0,0.2c-0.1,0.1-0.1-0.1-0.1-0.2
		l-0.1,0l0-0.1c-0.1,0-0.3-0.2-0.4-0.1c0,0.1,0.1,0.2,0,0.3l0,0.1l-0.1,0c0,0,0,0.1,0,0.1C61.5,2.2,61.2,2,60.9,2
		c-0.2,0-0.4-0.1-0.6-0.1c-0.1,0-0.1,0.1-0.2,0.1v0.1h0C59.9,2,60,2.1,59.8,2c0-0.1,0.2-0.1,0.2-0.2l0-0.1l0.1,0
		c-0.2,0-0.7-0.1-0.7,0.1l0,0.1l0,0.1c-0.1,0.2,0.2,0.1,0.2,0.3c-0.1,0-0.2,0-0.2,0.2v0.1h-0.1c0.1,0.2,0.3,0.2,0.4,0.3
		C59.7,2.5,60,2.7,60,2.5z M63.5,1.8l0,0.1C63.5,1.9,63.4,1.8,63.5,1.8C63.5,1.8,63.5,1.8,63.5,1.8z M63.3,1.9L63.3,1.9L63.3,1.9
		c0,0.1,0,0.1,0,0.1c-0.1,0.1-0.2-0.1-0.2-0.3C63.2,1.7,63.3,1.8,63.3,1.9z M62.6,1.7C62.7,1.8,62.5,2,62.6,1.7L62.6,1.7z"/>
	<path d="M63.6,1.7l0-0.1l0.1-0.1c0-0.1-0.1-0.2-0.1-0.1l0.1,0.1L63.6,1.7z"/>
	<path d="M63.7,1.7c0,0.1,0,0.1,0,0.2l0,0.1l-0.1,0c0.1,0.2,0.2,0.3,0.2,0.5c0.1,0,0.2-0.1,0.3-0.2c0-0.1-0.1-0.1-0.1-0.2l0,0l0,0
		c0,0,0,0,0-0.1l-0.1,0l0-0.1c0.2-0.2,0.1-0.4,0-0.5C64,1.3,64,1.5,64,1.6l0,0.1l-0.1,0c0,0.1,0,0.1,0.1,0.1c0,0.1-0.1,0.1-0.1,0.1
		c0-0.1,0-0.1,0-0.2l0-0.1l0-0.1c-0.1-0.1-0.1-0.2-0.2-0.3c-0.1,0,0,0.1-0.1,0.2V1.7L63.7,1.7z"/>
	<path d="M51.9,1.2c0-0.1,0-0.1,0-0.2L51.9,1l0-0.1c-0.2,0-0.5-0.2-0.6,0l0.1,0l-0.1,0C51.4,1.1,51.7,1.2,51.9,1.2z"/>
	<path d="M52.2,1.3c0-0.2,0.1,0,0.2-0.1c0-0.1,0.1-0.1,0-0.3l0.1-0.1c-0.1,0-0.1,0-0.2,0.1l0-0.1C52.2,1,52.1,0.9,52,1l0,0.1l-0.1,0
		C52,1.2,52.1,1.3,52.2,1.3z"/>
	<path d="M52.6,1.2c0-0.2,0.1-0.1,0.2-0.1c0-0.1,0-0.2,0-0.3c-0.2,0-0.3-0.2-0.4,0l0,0.1l0,0.1C52.5,1.1,52.5,1.2,52.6,1.2z"/>
	<path d="M55.9,20c-0.1,0-0.1,0.1-0.1,0.2c-0.2-0.2-0.5,0-0.9,0c-0.1-0.4-0.7,0.1-0.8,0c0.1,0,0,0.1-0.1,0.1l0,0.1l-0.1,0
		c0,0.1,0,0.1,0,0.2c0.1,0,0.5,0,0.6,0c0-0.1,0.1-0.1,0.1-0.2c0.1,0.2,0.3,0,0.4,0.1c0.1,0,0.2,0.1,0.3,0.2c0.1,0,0-0.1,0.1-0.1
		c0.1-0.1,0.4,0,0.6-0.2C55.9,20.2,55.9,20.1,55.9,20z"/>
	<path d="M53,20.2c-0.1,0-0.1-0.2-0.2-0.2c-0.1,0.3-0.4-0.2-0.5,0.3c0.4,0.4,0.8-0.1,1.2,0.2c0.1-0.2,0.2-0.1,0.3-0.2
		c0,0-0.1,0-0.1-0.1c0,0,0,0,0.1-0.1l0-0.1l0-0.1C53.6,19.9,53.2,20,53,20.2z"/>
	<path d="M53,1.8c0,0.1-0.2,0-0.2,0.1V2h0c0.2,0.4,0.5-0.2,0.9,0.1c0-0.1,0-0.4,0.1-0.4c-0.1,0-0.3-0.2-0.3,0
		c-0.1,0-0.2-0.1-0.3-0.2c-0.1,0.1-0.2,0.2-0.2,0.3C52.9,1.7,53,1.7,53,1.8z"/>
	<path d="M52.6,10.2C52.5,10,52.6,10.4,52.6,10.2L52.6,10.2z"/>
	<path d="M52.8,10c0.1,0.1,0.2,0.2,0.2,0C52.9,10.1,52.8,9.9,52.8,10z"/>
	<path d="M53.7,13.5c0-0.1,0.2-0.1,0-0.2C53.8,13.5,53.6,13.5,53.7,13.5z"/>
	<path d="M55.6,1.8c0-0.4,0.4,0.1,0.5-0.1c-0.1-0.1,0.1-0.1,0.2-0.2l-0.1-0.1l0-0.1c-0.3-0.1-0.6,0.2-0.8,0c0,0.1,0,0.1,0,0.2l0,0.1
		l-0.1,0c0,0,0,0.1,0,0.1l0.1,0l0,0.1C55.4,1.8,55.5,1.7,55.6,1.8z"/>
	<path d="M56.8,10.8C57.1,10.8,56.6,10.7,56.8,10.8L56.8,10.8z"/>
	<path d="M57.4,9.4C57.1,9.2,57.3,9.8,57.4,9.4C57.3,9.4,57.4,9.4,57.4,9.4z"/>
	<path d="M58.2,0.7c0-0.5-0.5-0.4-0.7-0.2c0,0,0,0,0,0.1l0.1,0l0,0.1C57.8,0.8,58,0.8,58.2,0.7z"/>
	<path d="M58,19.9c0-0.1,0.1,0,0.1-0.2C58,19.7,58,19.9,58,19.9z"/>
	<path d="M58.3,12.8c0.1,0.1,0.2-0.1,0.1-0.2C58.5,12.8,58.2,12.6,58.3,12.8z"/>
	<path d="M60.4,0.2c-0.3-0.2-0.3,0.2-0.5,0.2l0,0.1l0,0.1C60.1,0.7,60.5,0.7,60.4,0.2z"/>
	<path d="M58.9,0.6c0,0,0.1,0,0.1,0l0,0.1c0.2,0,0.3-0.2,0.5-0.2l0-0.1l0-0.1c-0.1-0.2-0.6-0.2-0.7,0C59,0.3,59,0.4,58.9,0.6
		L58.9,0.6c0-0.1-0.2,0-0.2,0.1C58.8,0.6,58.9,0.6,58.9,0.6L58.9,0.6z"/>
	<path d="M59.2,13.8C59.1,13.5,59.3,14,59.2,13.8L59.2,13.8z"/>
	<path d="M60.8,1.2c0.1,0,0.2,0,0.2,0.1c0.1,0,0.1-0.1,0.1-0.2l-0.1-0.1l0-0.1c-0.2,0-0.3-0.1-0.4,0.1L60.8,1.2L60.8,1.2z"/>
	<path d="M60.9,14.3c0-0.1,0.1,0,0.1-0.2c0,0-0.2-0.1-0.2-0.1C60.9,14.1,60.7,14.3,60.9,14.3z"/>
	<path d="M61.4,0.5c-0.1,0-0.1-0.1-0.1-0.2c0,0.1-0.1,0-0.1,0.1C61.3,0.4,61.4,0.6,61.4,0.5z"/>
	<path d="M62.1,3.5c0-0.1,0-0.1,0-0.2l0.1-0.1c0,0-0.1,0-0.1,0c0,0-0.1,0-0.1,0.1l0-0.1c-0.2-0.2-0.5,0-0.7,0.1c0.1,0,0,0.1,0,0.1
		c0.1-0.1,0.2,0.2,0.3,0.1c0,0,0-0.1,0-0.1C61.7,3.6,61.9,3.5,62.1,3.5z"/>
	<path d="M62.8,8.1c0,0.1-0.2,0-0.2,0.1l0,0.1l-0.1,0c0,0.1,0.1,0.2,0.3,0.2c0,0,0-0.1,0-0.1l0-0.1l0-0.1
		C62.7,8.2,62.9,8.1,62.8,8.1z"/>
	<path d="M62.5,0.9c0,0.1-0.1,0-0.2,0.1C62.3,1.3,62.6,1,62.5,0.9z"/>
	<path d="M63.8,3.1c-0.2,0-0.7,0-0.8,0.2l0.1,0.1l0,0.1c0.2,0,0.5-0.1,0.6,0.1c0.1-0.1,0.2-0.2,0.3-0.2l0,0l0,0
		C64,3.2,63.9,3.1,63.8,3.1z"/>
	<path d="M62.8,3.1c0,0.2-0.1,0-0.1,0.1c0,0.2,0.1,0.3,0.2,0.3l0-0.1L63,3.2C63,3.1,62.9,3.1,62.8,3.1z"/>
	<path d="M64.2,3.2L64.2,3.2C64.1,3.2,64.1,3.2,64.2,3.2c-0.1,0-0.1,0.1-0.2,0.1L64.2,3.2c0.3,0.4,1,0.2,1.4,0l-0.1-0.1l0-0.1
		c-0.1-0.1-0.3-0.2-0.3,0.1c-0.2-0.3-0.7,0.1-1,0C64.2,3.1,64.2,3.1,64.2,3.2z"/>
	<path d="M67.2,3.1c0-0.1,0-0.1,0-0.2l0-0.1l0-0.1c0,0-0.1-0.1-0.1-0.1l0,0l0,0c-0.2,0-0.5,0-0.9,0.1c0-0.1,0-0.1,0-0.2
		c0,0.3-0.3,0-0.4,0.3c-0.1-0.2-0.3-0.2-0.2,0.1l0,0.1l0,0.1C66.1,3.4,66.7,3,67.2,3.1z"/>
	<path d="M67.3,2.8L67.3,2.8l0,0.1c0.3,0.2,0.7,0,1,0.2c0-0.1,0.2-0.1,0.3-0.2l0-0.1l0.1-0.1c-0.1-0.1-0.2,0-0.4-0.2
		c0,0,0,0.1,0,0.1c-0.1-0.1-0.3,0-0.4-0.1c0,0.2-0.1,0-0.1,0.1c-0.1-0.2-0.3-0.3-0.4-0.2l0.1,0.1l-0.1,0.1
		C67.2,2.8,67.3,2.8,67.3,2.8z"/>
	<path d="M69.5,2.6c-0.3,0.2-0.6-0.2-0.7,0.1l0,0.1l0,0.1c0.2,0.1,0.6,0,0.7,0l0-0.1c0.1,0.1,0.1,0,0.2,0h-0.1
		C69.6,2.7,69.5,2.7,69.5,2.6z"/>
	<path d="M70.1,2.9c0-0.2-0.2-0.2-0.3-0.2l0,0.1l-0.1,0C69.8,3,70,2.9,70.1,2.9z"/>
	<path d="M65,1.6L65,1.6l0.1-0.1c0-0.2-0.1,0-0.3-0.2C64.9,1.5,64.9,1.6,65,1.6z"/>
	<path d="M66.1,1.6c0-0.2,0.1,0.1,0.1-0.1c0,0,0,0,0-0.1C66.1,1.4,66,1.5,66.1,1.6z"/>
	<path d="M66.3,4.7c0-0.1-0.3,0-0.2,0.1C66.1,4.6,66.2,4.8,66.3,4.7z"/>
	<path d="M66.2,1.3c0.2,0-0.1-0.3,0-0.1C66.3,1.3,66.2,1.3,66.2,1.3z"/>
	<path d="M67,1.7c0.1,0,0.1,0,0.2,0l0.1,0l0-0.1c0,0,0,0-0.1-0.1l0.2,0.1c0-0.1,0-0.1-0.1-0.2c0,0-0.1,0-0.1,0c0,0,0,0.1,0,0.1
		l0-0.1c-0.1,0,0.1-0.1,0-0.2c0,0.1-0.1,0.1-0.2,0c0,0.1-0.1,0-0.1,0.2C67,1.2,66.9,1.6,67,1.7z"/>
	<path d="M68.7,1.6L68.7,1.6l0.1-0.2L68.7,1.6L68.7,1.6C68.7,1.6,68.7,1.6,68.7,1.6z"/>
	<path d="M69,1.9c0-0.2,0.1,0,0.2-0.1l0.1,0l0.1,0c0-0.1,0,0,0.1,0c0,0,0-0.1,0-0.1h0V1.7c0,0,0,0,0,0c-0.1-0.1,0-0.2,0-0.4
		c-0.1,0-0.1,0.1-0.2,0.1c0-0.2-0.1-0.1-0.1-0.3c0,0.2,0,0.2,0,0.3l0,0.1l-0.1,0C69,1.7,69,1.8,69,1.9z"/>
	<path d="M69.5,1.7c0,0.2,0,0.1,0.1,0.1c0,0.1,0.1,0.2,0.2,0.3c0.2,0,0.3,0,0.3-0.1c0.1,0,0.2,0.1,0.2,0.2C70.2,2,70,1.8,70,1.6
		l0.1,0c0,0-0.1,0-0.1,0l0-0.1c-0.1,0-0.2-0.2-0.5-0.2C69.4,1.5,69.5,1.5,69.5,1.7L69.5,1.7L69.5,1.7z"/>
	<path d="M69.3,5.8L69.3,5.8L69.3,5.8c0.1-0.1,0.1-0.1,0.1-0.2l-0.1,0l0-0.1c-0.1,0.1-0.1-0.1-0.1-0.1c-0.1,0.1,0,0.2-0.1,0.2
		c0,0.1,0.1,0.1,0.1,0.2l0-0.1L69.3,5.8C69.3,5.8,69.3,5.8,69.3,5.8z"/>
	<path d="M58.5,14.4L58.5,14.4l0.1-0.1c0-0.1-0.1-0.1,0-0.2C58.3,14.1,58.3,14.5,58.5,14.4z"/>
	<path d="M68.8,6.5c-0.1-0.1-0.1,0-0.1-0.2c-0.1,0-0.1,0.1-0.2,0.2l0,0.1l0,0.1c0,0.1,0,0.2,0.1,0.2C68.6,6.6,68.7,6.6,68.8,6.5z"/>
	<path d="M68.1,6.4C68,6.5,68,6.6,67.8,6.5c0,0,0,0.1,0,0.1l0.1,0c0,0,0,0.1-0.1,0.1c0,0.1,0,0.1,0,0.1c0,0,0.1,0,0.1,0l0,0.1
		c0.1,0,0.2-0.1,0.2-0.3l0-0.1c0.1,0.2,0.2,0,0.3,0l-0.2,0C68.1,6.5,68.1,6.4,68.1,6.4z"/>
	<path d="M2,7.6l0-0.3C2.1,7.4,2,7.5,2,7.6z"/>
	<path d="M30.4,1.1l0.3,0.1C30.6,1.1,30.5,1,30.4,1.1z"/>
	<path d="M35.5,2.4c0,0-0.1,0-0.1,0.1L35.5,2.4z"/>
	<path d="M37.5,1.2h-0.2C37.4,1.3,37.5,1.2,37.5,1.2z"/>
	<path d="M37.5,1.2h0.1C37.6,1.2,37.6,1.2,37.5,1.2z"/>
	<path d="M39.1,1.2l-0.4,0C38.8,1.2,39,1.2,39.1,1.2z"/>
	<path d="M38.3,1.2l0.4,0C38.6,1.2,38.4,1.1,38.3,1.2z"/>
	<path d="M40.2,1.3l0.1,0C40.3,1.3,40.3,1.2,40.2,1.3z"/>
	<path d="M45.3,1.3l0.3,0C45.5,1.2,45.4,1.3,45.3,1.3z"/>
	<path d="M44.4,1.3l-0.2,0C44.3,1.3,44.3,1.4,44.4,1.3z"/>
	<path d="M43.8,1.3l0.2,0C44,1.3,43.9,1.3,43.8,1.3z"/>
	<path d="M50.9,2l-0.2,0C50.8,2,50.8,2,50.9,2z"/>
	<path d="M53.7,11.1l1.2-0.2C54.5,11,54.1,11,53.7,11.1z"/>
	<path d="M57,0.6c-0.1,0-0.1-0.1-0.2-0.1L57,0.6z"/>
	<path d="M59.4,1.3l0.4-0.1C59.7,1.2,59.5,1.1,59.4,1.3z"/>
	<path d="M60.8,3.5C60.8,3.5,60.8,3.4,60.8,3.5l-0.2,0C60.7,3.5,60.7,3.5,60.8,3.5z"/>
	<path d="M64.6,1.4c-0.1,0-0.2-0.1-0.2,0.1c0,0,0,0,0,0L64.6,1.4z"/>
	<path d="M68.8,7.1h-0.1C68.7,7.1,68.8,7.1,68.8,7.1z"/>
	<path d="M69.8,6.5l0.5-0.1C70.2,6.2,70,6.4,69.8,6.5z"/>
	<path d="M69.4,6.5c-0.1,0-0.1,0-0.2,0L69.4,6.5z"/>
	<path d="M69.6,6.5l-0.2,0C69.5,6.5,69.6,6.5,69.6,6.5z"/>
	<path d="M0.7,9.7L0.7,9.7C0.6,9.7,0.6,9.7,0.7,9.7z"/>
	<path d="M2.2,8.4l0.1-0.2C2.3,8.3,2.3,8.3,2.2,8.4z"/>
	<path d="M2.5,4.1L2.4,3.8C2.4,3.9,2.5,4,2.5,4.1z"/>
	<path d="M2.3,3.5c0,0.1,0,0.2,0,0.2L2.3,3.5z"/>
	<path d="M2.4,3.8h0.1C2.5,3.8,2.4,3.8,2.4,3.8z"/>
	<path d="M5.6,2.2c0,0-0.1,0-0.1,0c0,0,0,0,0,0l0.1,0.2C5.6,2.3,5.6,2.3,5.6,2.2z"/>
	<path d="M6.8,2c0,0.1,0,0.1,0,0.2L6.8,2C6.8,2,6.8,2,6.8,2z"/>
	<path d="M6.8,2L6.9,2C6.9,2,6.8,2,6.8,2z"/>
	<path d="M7.6,1.6L7.5,1.8c0,0,0-0.1,0.1-0.1C7.6,1.7,7.6,1.6,7.6,1.6z"/>
	<path d="M28.4,1.2l-0.6,0.1C28.1,1.3,28.2,1.2,28.4,1.2z"/>
	<path d="M25.7,1.4l1.6-0.1C26.8,1.3,26.2,1.3,25.7,1.4z"/>
	<path d="M27.7,1.8c-0.2,0-0.4,0-0.6,0.1L27.7,1.8z"/>
	<path d="M30.1,1.7l0.6,0C30.4,1.7,30.2,1.6,30.1,1.7z"/>
	<path d="M29.6,1.7h0.1C29.7,1.7,29.7,1.7,29.6,1.7z"/>
	<path d="M29.6,1.7h-0.2C29.5,1.7,29.5,1.7,29.6,1.7z"/>
	<path d="M28.4,1.8l0.6-0.1C28.9,1.8,28.6,1.7,28.4,1.8z"/>
	<path d="M27.8,1.8l0.2,0C27.9,1.7,27.9,1.8,27.8,1.8z"/>
	<path d="M31.5,2.3l-0.2,0C31.3,2.3,31.4,2.3,31.5,2.3z"/>
	<path d="M42.5,2.6h0.2C42.6,2.6,42.6,2.6,42.5,2.6z"/>
	<path d="M68.8,5.8C68.9,5.8,68.9,5.8,68.8,5.8c0.1-0.1,0-0.1,0-0.2L68.8,5.8z"/>
	<path d="M68.8,5.8L68.7,6C68.8,6,68.8,6,68.8,5.8z"/>
	<path d="M68.8,5.8c-0.1-0.1-0.2-0.1-0.3-0.1L68.8,5.8z"/>
	<path d="M67,7c-0.1,0-0.1,0-0.2,0L67,7z"/>
	<path d="M67,7.5c0.5,0,0.9-0.2,1.4-0.3L67,7.5z"/>
	<path d="M63.5,8.1l-0.2,0C63.4,8.2,63.4,8.2,63.5,8.1z"/>
	<path d="M64.3,7.7l0,0.2C64.3,7.8,64.3,7.8,64.3,7.7z"/>
	<path d="M55.2,9.8L55,9.6C55,9.7,55.1,9.8,55.2,9.8C55.1,9.8,55.1,9.8,55.2,9.8z"/>
	<path d="M51.5,10.2l0.1,0C51.6,10.1,51.6,10.1,51.5,10.2z"/>
	<path d="M51.4,10.2c0.1,0,0.1,0,0.1,0L51.4,10.2z"/>
	<path d="M55,12.1l0.4-0.1C55.2,12.1,55.1,12.1,55,12.1z"/>
	<path d="M56.1,12.4l0.2,0.2C56.2,12.5,56.2,12.4,56.1,12.4C56.1,12.4,56.1,12.4,56.1,12.4z"/>
	<path d="M54.2,13.9l-0.7-0.1C53.7,13.8,54,14,54.2,13.9z"/>
	<path d="M57.5,14.4l0.1,0C57.6,14.4,57.6,14.4,57.5,14.4z"/>
	<path d="M52.6,15.8L52.5,16C52.5,16,52.6,15.9,52.6,15.8z"/>
	<path d="M44.9,20.8l-0.1-0.1C44.9,20.7,44.9,20.7,44.9,20.8z"/>
	<path d="M18,21.4l-0.1-0.1C17.9,21.3,17.9,21.3,18,21.4z"/>
	<path d="M22.4,22.4l0.1-0.1C22.4,22.3,22.4,22.3,22.4,22.4C22.4,22.3,22.4,22.4,22.4,22.4z"/>
	<path d="M12.1,22.2c0-0.1,0-0.2,0-0.2L12.1,22.2z"/>
	<path d="M7.4,21.9l-0.2,0C7.3,21.9,7.4,21.9,7.4,21.9z"/>
	<path d="M7.2,21.9C7.2,21.9,7.3,21.9,7.2,21.9l-0.1-0.2C7.2,21.8,7.2,21.9,7.2,21.9z"/>
	<path d="M6.9,21.5H6.7C6.7,21.5,6.8,21.5,6.9,21.5z"/>
	<path d="M5.4,19.9c0,0,0.1,0.1,0.1,0.1L5.4,19.9z"/>
	<path d="M2.8,16.8l0,0.2C2.8,16.9,2.8,16.8,2.8,16.8z"/>
	<path d="M2.8,16.8l0-0.2C2.7,16.7,2.8,16.7,2.8,16.8z"/>
	<path d="M2.7,16.6c0,0.1,0,0.1-0.1,0.2L2.7,16.6z"/>
	<path d="M1.8,15.4L2,15.5c0,0-0.1-0.1-0.1-0.1C1.9,15.4,1.8,15.4,1.8,15.4z"/>
	<path d="M1.6,14.7l0-0.1C1.6,14.6,1.6,14.6,1.6,14.7z"/>
	<path d="M1.5,14.4C1.5,14.5,1.5,14.5,1.5,14.4l0.1,0.1C1.6,14.5,1.6,14.5,1.5,14.4z"/>
	<path d="M1,11.7l0.1-0.4c0,0.1-0.1,0.1-0.2,0.1C0.9,11.5,1,11.6,1,11.7z"/>
	<path d="M7.3,21.9c0-0.1,0-0.2,0-0.3L7.3,21.9z"/>
	<path d="M3.6,17.2c0.1-0.1,0.1-0.1,0.2-0.2L3.6,17.2z"/>
	<path d="M7.4,21.6l0,0.2C7.4,21.8,7.4,21.7,7.4,21.6z"/>
	<path d="M12.2,21.9c0,0,0,0.1,0.1,0.2L12.2,21.9z"/>
	<path d="M14.7,21.6v0.2C14.7,21.8,14.7,21.7,14.7,21.6z"/>
	<path d="M15.1,21.8c0-0.1-0.1-0.1-0.1-0.2L15.1,21.8z"/>
	<path d="M18.9,1.8C18.9,1.9,19,1.9,19,2L18.9,1.8z"/>
	<path d="M26.9,2.2l0-0.4C26.9,2,26.9,2.1,26.9,2.2z"/>
	<path d="M26.4,1.9l0.5,0C26.7,1.9,26.6,1.8,26.4,1.9z"/>
	<path d="M26.2,2l-0.1,0.1C26.1,2.1,26.2,2.1,26.2,2z"/>
	<path d="M25.9,1.9h0.2C26,1.9,26,1.9,25.9,1.9z"/>
	<path d="M26.9,1.9L27,2C27,2,27,1.9,26.9,1.9z"/>
	<path d="M38.9,20.6l-0.1-0.2C38.9,20.5,38.9,20.6,38.9,20.6z"/>
	<path d="M64.1,4.4l0.3,0C64.3,4.3,64.2,4.3,64.1,4.4z"/>
	<path d="M64.1,4.4l-0.2,0C64,4.4,64.1,4.4,64.1,4.4z"/>
	<path d="M62.8,4.5l-0.3,0C62.6,4.5,62.7,4.5,62.8,4.5z"/>
	<path d="M60.4,4.7l-0.3,0C60.1,4.7,60.3,4.7,60.4,4.7z"/>
	<path d="M64.5,7.9l-0.3,0C64.4,8,64.5,7.9,64.5,7.9z"/>
	<path d="M1,12.1C1,12.2,1,12.2,1,12.1L1,12.1z"/>
	<path d="M5.7,20.4c0,0,0-0.1,0-0.1L5.7,20.4z"/>
	<path d="M17.7,1.8L17.7,1.8C17.6,1.8,17.6,1.8,17.7,1.8z"/>
	<path d="M34.3,1.7l-0.2,0C34.2,1.7,34.3,1.7,34.3,1.7z"/>
	<path d="M33.3,1.7l0.2,0C33.4,1.6,33.3,1.7,33.3,1.7z"/>
	<path d="M32.1,1.7h0.4C32.4,1.7,32.2,1.6,32.1,1.7z"/>
	<path d="M33,1.7h-0.5C32.7,1.7,32.9,1.7,33,1.7z"/>
	<path d="M37.7,1.8l0.3,0C37.8,1.8,37.8,1.8,37.7,1.8z"/>
	<path d="M38.2,1.8l-0.3,0C38,1.8,38.1,1.8,38.2,1.8z"/>
	<path d="M48.2,1.1l-0.3,0.1C48,1.3,48.1,1.2,48.2,1.1z"/>
	<path d="M46.5,1.3l-0.2,0C46.3,1.3,46.4,1.3,46.5,1.3z"/>
	<path d="M46.5,1.3c0,0.1,0.1,0.1,0.1,0.1L46.5,1.3z"/>
	<path d="M59.4,1.9l-0.1-0.1C59.3,1.8,59.3,1.9,59.4,1.9z"/>
	<path d="M60.1,1.8c0.1,0,0.1,0,0.1-0.1L60.1,1.8z"/>
	<path d="M61.7,1.8l-0.1-0.1C61.6,1.7,61.6,1.7,61.7,1.8z"/>
	<path d="M64.5,2.3l-0.2-0.2c0,0,0.1,0.1,0.1,0.1C64.5,2.3,64.5,2.3,64.5,2.3z"/>
	<path d="M63.7,1.9C63.7,1.9,63.7,1.9,63.7,1.9l0-0.3C63.6,1.7,63.6,1.8,63.7,1.9z"/>
	<path d="M60.2,2.1l0-0.3C60.1,1.9,60.1,2,60.2,2.1z"/>
	<path d="M51.9,1l0.2,0C52,1,51.9,1,51.9,1z"/>
	<path d="M54,20.3c-0.1,0-0.1,0-0.2-0.1L54,20.3z"/>
	<path d="M54.2,13.6c0,0,0.1,0,0.1-0.1L54.2,13.6z"/>
	<path d="M54.9,13.8c-0.1,0-0.1,0-0.1,0.1L54.9,13.8z"/>
	<path d="M55.3,1.8C55.3,1.8,55.3,1.8,55.3,1.8L55.3,1.8C55.3,1.7,55.3,1.8,55.3,1.8z"/>
	<path d="M56.2,1.5l0.3,0C56.4,1.4,56.3,1.5,56.2,1.5z"/>
	<path d="M56.3,20l-0.1,0C56.2,20.1,56.2,20.1,56.3,20z"/>
	<path d="M56.7,20.1l0-0.1C56.7,20,56.7,20,56.7,20.1z"/>
	<path d="M57.6,0.6l-0.2,0C57.5,0.6,57.6,0.6,57.6,0.6z"/>
	<path d="M58.2,14.4C58.2,14.4,58.2,14.4,58.2,14.4v-0.2C58.2,14.3,58.2,14.4,58.2,14.4z"/>
	<path d="M58.5,1.3l-0.4-0.1C58.2,1.4,58.4,1.2,58.5,1.3z"/>
	<path d="M59.6,0.4c0.1,0.1,0.2,0.1,0.3,0.1L59.6,0.4z"/>
	<path d="M59.4,19.6c-0.1,0-0.1,0.1-0.2,0.1L59.4,19.6z"/>
	<path d="M59.9,3.5l-0.6,0C59.5,3.6,59.7,3.6,59.9,3.5z"/>
	<path d="M59.8,14.2l0.1-0.1C59.8,14.1,59.8,14.2,59.8,14.2z"/>
	<path d="M60.3,1.3h0.2C60.4,1.2,60.3,1.2,60.3,1.3z"/>
	<path d="M60.5,1.3L60.5,1.3C60.5,1.3,60.5,1.3,60.5,1.3z"/>
	<path d="M62.2,1c-0.4-0.1-0.7,0-1.1,0L62.2,1C62.2,1.1,62.2,1,62.2,1z"/>
	<path d="M63,8.2l-0.2,0C62.9,8.3,63,8.3,63,8.2z"/>
	<path d="M62.5,8.3l0.2,0C62.6,8.2,62.5,8.2,62.5,8.3z"/>
	<path d="M62.5,8.3l-0.1,0C62.4,8.3,62.4,8.3,62.5,8.3z"/>
	<path d="M62.5,0C62.6,0,62.6,0,62.5,0l-0.1,0C62.5,0,62.5,0.1,62.5,0z"/>
	<path d="M67.1,2.7C67.1,2.7,67.1,2.7,67.1,2.7l0.2-0.1C67.2,2.6,67.2,2.7,67.1,2.7z"/>
	<path d="M69.7,2.8h0.1C69.8,2.8,69.7,2.8,69.7,2.8z"/>
	<path d="M68.7,2.8l-0.2,0C68.6,2.9,68.6,2.9,68.7,2.8z"/>
	<path d="M65.4,2.3l-0.1,0C65.3,2.3,65.4,2.3,65.4,2.3z"/>
	<path d="M65.5,2.2C65.5,2.2,65.5,2.3,65.5,2.2L65.5,2.2C65.5,2.2,65.5,2.2,65.5,2.2z"/>
	<path d="M66.7,1.5C66.7,1.5,66.7,1.5,66.7,1.5l-0.2-0.2c0,0,0,0.1,0,0.1C66.6,1.5,66.6,1.5,66.7,1.5z"/>
	<path d="M67.7,1.6L67.7,1.6c0,0.3,0.2,0,0.2,0.2c0-0.1,0.1-0.1,0.1-0.3c-0.1,0-0.1,0-0.1-0.1l0.2,0.1c-0.1,0-0.1-0.2-0.2-0.2
		c0,0-0.1,0.1-0.1,0.1l0-0.1c0-0.1-0.1-0.2-0.1-0.2c0,0.2-0.1,0.1-0.1,0.2C67.8,1.4,67.6,1.5,67.7,1.6h-0.2
		C67.5,1.7,67.6,1.7,67.7,1.6z"/>
	<path d="M68.2,1.4l-0.1-0.2C68.2,1.3,68.2,1.4,68.2,1.4z"/>
	<path d="M68.8,1.5l0.2,0C68.9,1.5,68.8,1.5,68.8,1.5z"/>
	<path d="M68.8,1.7l-0.1-0.1C68.8,1.6,68.8,1.7,68.8,1.7z"/>
	<path d="M68.7,1.5c0,0-0.1,0-0.1,0.1L68.7,1.5C68.7,1.5,68.7,1.5,68.7,1.5z"/>
	<path d="M68.1,1.6c0.1,0,0.1,0.1,0.1,0.2c0.1,0,0.2-0.1,0.2,0.1l0.1,0l-0.1,0c0,0.1,0.1,0.1,0.1,0.1c0-0.1,0.1-0.2,0.1-0.4h0V1.5
		c-0.1-0.1-0.2-0.1-0.4-0.2l0,0.1l-0.1,0c0,0,0,0-0.1,0L68.1,1.6c0,0.1,0,0.2,0.1,0.3L68.1,1.6z"/>
	<path d="M67.5,1.6l-0.2,0C67.3,1.7,67.5,1.7,67.5,1.6z"/>
	<path d="M67.4,1.5l0.1,0.1C67.5,1.5,67.4,1.5,67.4,1.5z"/>
	<path d="M67.4,1.5l-0.1,0.1C67.3,1.6,67.3,1.5,67.4,1.5z"/>
	<path d="M69.3,5.7C69.4,5.6,69.4,5.6,69.3,5.7L69.3,5.7z"/>
	<path d="M69.3,5.8c0.1,0.1,0.1,0.2,0.2,0.1L69.3,5.8z"/>
	<path d="M69.2,5.8v0.1C69.2,5.9,69.2,5.9,69.2,5.8z"/>
	<path d="M58.7,14.3l0.1,0C58.8,14.2,58.7,14.2,58.7,14.3z"/>
	<path d="M58.6,14.4c0,0,0.1-0.1,0.1-0.1l-0.2,0.1C58.5,14.4,58.6,14.4,58.6,14.4z"/>
	<path d="M68.4,6.5l0.1,0C68.5,6.5,68.4,6.5,68.4,6.5z"/>
</g>
</svg>
