<?xml version="1.0" encoding="utf-8"?>
<!-- Generator: Adobe Illustrator 16.0.0, SVG Export Plug-In . SVG Version: 6.00 Build 0)  -->
<!DOCTYPE svg PUBLIC "-//W3C//DTD SVG 1.1//EN" "http://www.w3.org/Graphics/SVG/1.1/DTD/svg11.dtd">
<svg version="1.1" id="Layer_1" xmlns="http://www.w3.org/2000/svg" xmlns:xlink="http://www.w3.org/1999/xlink" x="0px" y="0px"
	 width="800px" height="600px" viewBox="0 0 800 600" enable-background="new 0 0 800 600" xml:space="preserve">
<g id="food_1_" opacity="0.3">
	<path fill="#333333" d="M637.151,388.834h-47.279c-0.789-4.203-1.75-8.303-2.813-12.403l84.317-42.148
		c8.663-4.324,12.163-14.892,7.84-23.572c-4.356-8.68-14.855-12.154-23.57-7.856l-80.424,40.213
		C544.549,276.863,477.644,230.733,400,230.733c-94.542,0-173.3,68.303-189.881,158.101h-47.271
		c-24.206,0-43.917,19.693-43.917,43.916c0,8.612,3.165,16.916,8.869,23.349l61.398,69.066v12.986
		c0,24.223,19.711,43.917,43.917,43.917h333.769c24.224,0,43.916-19.694,43.916-43.917v-12.986l61.381-69.066
		c5.73-6.433,8.888-14.735,8.888-23.349C681.068,408.527,661.375,388.834,637.151,388.834z M572.134,388.834h-9.882l8.75-4.393
		C571.345,385.918,571.825,387.342,572.134,388.834z M400,248.3c70.781,0,131.751,42.158,159.542,102.604l-15.646,7.821
		c-24.875-54.725-79.874-92.859-143.896-92.859c-75.225,0-138.055,52.581-154.061,122.968h-18.056
		C244.198,308.754,315.168,248.3,400,248.3z M480.389,388.834c-13.587-30.982-44.466-52.701-80.389-52.701
		s-66.785,21.719-80.389,52.701H300.75c14.504-40.863,53.455-70.268,99.25-70.268c43.299,0,80.594,26.28,96.754,63.714
		l-13.072,6.554H480.389L480.389,388.834z M400,371.268c-15.508,0-29.335,6.861-39.002,17.566h-21.495
		C351.691,367.939,374.104,353.7,400,353.7c25.869,0,48.309,14.239,60.488,35.134h-21.529
		C429.335,378.129,415.508,371.268,400,371.268z M400,301c-55.6,0-102.622,37.089-117.787,87.834h-18.125
		c15.663-60.488,70.56-105.401,135.912-105.401c57.023,0,106.155,34.224,128.148,83.167l-15.681,7.823
		C493.357,331.262,450.161,301,400,301z M575.668,511.801v26.352c0,4.838-3.945,8.782-8.783,8.782H233.116
		c-4.846,0-8.784-3.944-8.784-8.782v-26.352l-70.267-79.051c0-4.837,3.937-8.783,8.783-8.783h43.917h17.566h17.567h17.567h17.567
		H294.6h17.566h17.567H347.3h105.4h17.566h17.566H505.4h17.565h17.567H558.1h17.566h17.566h43.917c4.838,0,8.782,3.946,8.782,8.783
		L575.668,511.801z"/>
	<path fill="#333333" d="M259.063,225.672c0.052,0.103,0.086,0.215,0.137,0.317c0,0,0.018,0,0.035,0
		c1.458,2.813,4.375,4.744,7.788,4.744c4.864,0,8.818-3.972,8.818-8.835c0-0.755-0.129-1.493-0.317-2.196
		c0.034-0.12,0.034-0.231,0-0.352c-6.587-15.5-0.334-32.5,7.359-50.805c8.312-19.78,17.215-41.738,7.411-64.066
		c-1.244-3.216-4.357-5.498-8.011-5.498c-4.761,0-8.604,3.86-8.604,8.612c0,1.046,0.206,2.033,0.558,2.968
		c0,0.035,0,0.069,0.017,0.103c0.017,0.051,0.043,0.103,0.06,0.154c0.034,0.069,0.051,0.146,0.086,0.214
		c7.093,15.963,0.223,32.337-7.522,50.822c-8.183,19.479-17.25,41.069-8.132,63.079C258.848,225.2,258.942,225.432,259.063,225.672z
		"/>
	<path fill="#333333" d="M472.978,223.107c0.069,0.111,0.104,0.214,0.139,0.317h0.033c1.477,2.813,4.393,4.76,7.788,4.76
		c4.855,0,8.853-3.971,8.853-8.834c0-0.755-0.137-1.493-0.326-2.196c0.053-0.129,0.053-0.232-0.033-0.352
		c-6.554-15.491-0.309-32.5,7.395-50.805c8.303-19.78,17.206-41.738,7.411-64.065c-1.271-3.234-4.357-5.498-8.029-5.498
		c-4.752,0-8.611,3.868-8.611,8.603c0,1.055,0.24,2.042,0.583,2.977c0,0.034,0,0.068,0,0.103c0.034,0.051,0.034,0.103,0.069,0.154
		c0.033,0.077,0.068,0.146,0.068,0.214c7.102,15.971,0.239,32.337-7.515,50.822c-8.184,19.479-17.225,41.086-8.098,63.096
		C472.771,222.636,472.875,222.876,472.978,223.107z"/>
	<path fill="#333333" d="M382.768,146.622c0.052,0.103,0.086,0.214,0.137,0.317c0,0,0.018,0,0.035,0
		c1.475,2.813,4.392,4.761,7.788,4.761c4.864,0,8.818-3.972,8.818-8.835c0-0.755-0.129-1.493-0.317-2.196
		c0.034-0.12,0.034-0.232,0-0.352c-6.586-15.491-0.334-32.5,7.36-50.805c8.303-19.78,17.223-41.738,7.41-64.065
		c-1.271-3.233-4.357-5.515-8.028-5.515c-4.743,0-8.603,3.86-8.603,8.612c0,1.046,0.206,2.033,0.558,2.968
		c0,0.034,0,0.068,0.018,0.104c0.017,0.051,0.033,0.103,0.06,0.154c0.017,0.068,0.051,0.146,0.068,0.214
		c7.094,15.963,0.223,32.337-7.522,50.822c-8.183,19.479-17.249,41.086-8.114,63.096
		C382.553,146.15,382.647,146.381,382.768,146.622z"/>
</g>
<g opacity="0.3">
	<path d="M221.966,496.547c-5.21-5.125-12.415-13.048-21.611-23.769c-9.197-10.721-16.074-18.473-20.629-23.257
		c0.028,10.707,0.228,22.012,0.598,33.912c0.113,3.161,0.17,5.083,0.17,5.767c0,2.818-0.299,4.663-0.896,5.53
		c-0.598,0.869-1.708,1.304-3.332,1.304c-1.054,0-2.15-0.186-3.289-0.557c-1.139-0.368-2.278-0.909-3.417-1.622
		c1.538-2.619,2.619-6.386,3.246-11.297c0.626-4.912,0.939-13.574,0.939-25.988c0-5.837-0.363-9.979-1.089-12.43
		c-0.726-2.449-2.001-4.156-3.823-5.125c1.252-1.479,2.363-2.542,3.332-3.183c0.967-0.641,1.936-0.961,2.904-0.961
		c0.911,0,1.808,0.293,2.69,0.876c0.882,0.584,1.965,1.616,3.246,3.097c0.228,0.256,0.754,0.883,1.58,1.879
		c10.905,12.983,23.149,27.035,36.731,42.155c0.085-4.243,0.149-7.987,0.192-11.233c0.042-3.245,0.064-6.021,0.064-8.327
		c0-7.574-0.299-13.348-0.897-17.319c-0.598-3.972-1.581-7.153-2.947-9.546c1.282-0.684,2.441-1.188,3.481-1.517
		c1.039-0.326,2.014-0.49,2.926-0.49c1.623,0,2.74,0.477,3.353,1.431c0.613,0.954,0.918,3.011,0.918,6.172
		c0,1.879-0.164,6.499-0.491,13.859c-0.328,7.359-0.491,13.803-0.491,19.326c0,3.588,0.085,6.946,0.256,10.078
		c0.171,3.134,0.413,6.065,0.726,8.8L221.966,496.547z"/>
	<path d="M269.417,497.272c-4.328,0-8.378-0.72-12.151-2.156c-3.773-1.438-7.097-3.523-9.973-6.258
		c-3.075-2.904-5.389-6.278-6.94-10.122c-1.552-3.845-2.328-8.144-2.328-12.898c0-4.641,0.833-8.954,2.499-12.941
		c1.666-3.984,4.122-7.502,7.367-10.549c3.161-2.989,6.834-5.254,11.02-6.791s8.741-2.307,13.667-2.307
		c9.652,0,17.383,2.733,23.192,8.2c5.809,5.468,8.713,12.729,8.713,21.782c0,4.471-0.791,8.69-2.371,12.664
		c-1.581,3.972-3.88,7.51-6.898,10.612c-3.445,3.588-7.318,6.278-11.617,8.072C279.298,496.375,274.571,497.272,269.417,497.272z
		 M295.556,463.831c0-7.204-2.164-12.97-6.492-17.298c-4.329-4.328-10.123-6.492-17.383-6.492c-7.489,0-13.482,2.293-17.981,6.877
		s-6.748,10.691-6.748,18.322c0,7.375,2.178,13.376,6.535,18.002c4.356,4.628,10.022,6.939,16.999,6.939
		c7.403,0,13.433-2.447,18.088-7.346C293.229,477.938,295.556,471.604,295.556,463.831z"/>
	<path d="M353.215,493.856c-1.339,0.712-2.62,1.253-3.844,1.621c-1.225,0.371-2.392,0.557-3.502,0.557
		c-1.51,0-2.541-0.42-3.097-1.26c-0.555-0.841-0.833-2.456-0.833-4.849c0-1.224,0.128-5.089,0.384-11.596
		c0.256-6.506,0.384-12.437,0.384-17.789c0-6.861-0.207-12.151-0.619-15.867c-0.413-3.716-1.075-6.397-1.986-8.051
		c1.452-0.77,2.769-1.338,3.951-1.708c1.181-0.37,2.285-0.556,3.31-0.556c1.48,0,2.52,0.428,3.118,1.28
		c0.598,0.854,0.897,2.378,0.897,4.57c0,0.342-0.149,3.88-0.449,10.613c-0.299,6.733-0.448,13.318-0.448,19.754
		c0,6.492,0.213,11.546,0.641,15.162C351.55,489.355,352.247,492.063,353.215,493.856z"/>
	<path d="M433.852,436.71c-0.513,1.851-0.891,3.752-1.132,5.701c-0.242,1.951-0.362,4.079-0.362,6.386
		c0,9.197,0.583,17.611,1.751,25.241c1.168,7.632,2.89,14.237,5.168,19.817c-1.366,0.74-2.647,1.288-3.845,1.645
		c-1.194,0.355-2.362,0.534-3.502,0.534c-1.195,0-2.136-0.256-2.818-0.77c-0.684-0.513-1.183-1.338-1.494-2.478
		c-0.171-0.685-0.485-5.887-0.94-15.61c-0.455-9.723-1.096-19.212-1.922-28.467c-5.951,11.219-12.215,23.506-18.792,36.859
		c-1.196,2.478-2.021,4.156-2.478,5.04c-0.541,1.082-1.075,1.851-1.603,2.306c-0.526,0.456-1.132,0.684-1.814,0.684
		c-1.367,0-2.776-1.564-4.229-4.697c-0.342-0.711-0.612-1.268-0.812-1.665c-4.613-9.368-8.506-17.178-11.681-23.428
		c-3.175-6.25-5.787-11.226-7.837-14.928c-0.484,7.204-0.947,16.038-1.388,26.502s-0.947,16.508-1.516,18.131
		c-0.285,0.883-0.712,1.523-1.281,1.922c-0.57,0.398-1.338,0.599-2.306,0.599c-0.741,0-1.645-0.179-2.712-0.534
		s-2.313-0.903-3.737-1.645c2.221-5.553,3.915-12.157,5.083-19.817c1.167-7.659,1.751-16.158,1.751-25.498
		c0-2.248-0.122-4.335-0.363-6.257c-0.243-1.922-0.591-3.779-1.047-5.573c0.94-0.825,1.801-1.424,2.584-1.794
		c0.783-0.37,1.616-0.556,2.499-0.556c2.762,0,7.189,6.308,13.283,18.921c2.306,4.756,4.171,8.542,5.595,11.36
		c3.217,6.378,5.417,10.593,6.599,12.643c1.182,2.051,1.957,3.075,2.328,3.075c0.77,0,4.655-7.118,11.66-21.354
		c2.904-5.865,5.225-10.55,6.962-14.052c1.879-3.815,3.537-6.535,4.977-8.158c1.438-1.623,2.867-2.435,4.292-2.435
		c0.825,0,1.63,0.186,2.412,0.556C431.967,435.286,432.854,435.885,433.852,436.71z"/>
	<path d="M481.985,476.345H458.88c-2.278,4.954-3.865,8.841-4.763,11.66c-0.896,2.818-1.346,5.239-1.346,7.261l-0.043,0.685
		c-0.654,0.085-1.132,0.135-1.431,0.148c-0.3,0.015-0.577,0.021-0.833,0.021c-1.852,0-3.261-0.377-4.229-1.132
		c-0.97-0.754-1.452-1.857-1.452-3.311s2.762-7.729,8.286-18.835c5.522-11.104,10.35-21.426,14.479-30.965
		c-0.456-0.655-0.947-1.288-1.474-1.9c-0.527-0.611-1.089-1.23-1.688-1.857c1.055-1.311,2.016-2.264,2.885-2.861
		c0.867-0.598,1.742-0.896,2.626-0.896c1.225,0,2.412,0.791,3.565,2.371s2.499,4.264,4.036,8.051
		c1.338,3.273,3.175,7.845,5.51,13.71c7.915,19.902,13.425,31.335,16.528,34.296c-1.082,1.196-2.078,2.05-2.989,2.563
		c-0.911,0.514-1.865,0.77-2.86,0.77c-2.878,0-6.138-4.896-9.781-14.691C483.081,479.264,482.44,477.569,481.985,476.345z
		 M470.967,448.797l-2.051,4.783c-3.274,7.688-5.68,13.326-7.218,16.913h17.98c-1.452-3.9-2.903-7.651-4.355-11.254
		C473.871,455.638,472.419,452.157,470.967,448.797z"/>
	<path d="M549.596,467.974c1.424-0.882,2.685-1.544,3.78-1.985c1.096-0.44,1.986-0.662,2.669-0.662c1.766,0,3.012,0.641,3.737,1.922
		c0.727,1.282,1.089,3.588,1.089,6.92c0,4.328-0.341,8.129-1.024,11.403c-0.683,3.273-1.565,5.51-2.647,6.705
		c-1.51,1.596-3.752,2.798-6.728,3.608c-2.976,0.813-6.655,1.217-11.041,1.217c-10.648,0-19.197-2.653-25.646-7.965
		c-6.449-5.311-9.674-12.308-9.674-20.991c0-4.356,0.825-8.464,2.478-12.322c1.651-3.857,4.114-7.424,7.389-10.698
		c3.76-3.787,8.193-6.698,13.306-8.734c5.109-2.034,10.526-3.054,16.251-3.054c2.505,0,4.342,0.327,5.51,0.982
		c1.167,0.654,1.751,1.693,1.751,3.117c0,0.654-0.128,1.417-0.385,2.284c-0.256,0.869-0.642,1.83-1.153,2.884
		c-1.109-0.455-2.292-0.79-3.545-1.003c-1.253-0.215-2.646-0.32-4.186-0.32c-8.285,0-15.092,2.397-20.415,7.196
		c-5.325,4.798-7.987,10.94-7.987,18.43c0,7.346,2.313,13.02,6.94,17.02c4.627,4.001,11.196,6.001,19.711,6.001
		c2.136,0,4.214-0.178,6.235-0.533s4-0.891,5.938-1.603c0.198-1.253,0.348-2.563,0.448-3.93c0.1-1.366,0.148-2.848,0.148-4.441
		c0-2.676-0.242-4.961-0.726-6.854C551.332,470.672,550.593,469.142,549.596,467.974z"/>
	<path d="M605.034,443.287c-1.51-0.685-3.339-1.188-5.488-1.518c-2.149-0.325-4.877-0.489-8.18-0.489
		c-1.366,0-3.901,0.042-7.604,0.128c-0.911,0.027-1.607,0.042-2.093,0.042l-0.341,18.878c0.769,0.058,1.594,0.086,2.477,0.086
		c0.884,0,2.278,0,4.187,0c3.787,0,6.912-0.086,9.375-0.257c2.463-0.17,4.264-0.427,5.402-0.77c0.343,0.798,0.599,1.502,0.77,2.114
		s0.256,1.16,0.256,1.645c0,1.366-0.441,2.35-1.324,2.947c-0.883,0.599-2.335,0.896-4.355,0.896c-0.655,0-2.271-0.028-4.848-0.085
		c-2.578-0.058-4.806-0.086-6.685-0.086c-1.424,0-2.521,0.008-3.289,0.021c-0.769,0.016-1.479,0.036-2.135,0.064
		c0,3.218-0.036,6.641-0.107,10.271s-0.178,7.609-0.319,11.938c0.283,0,0.712,0.015,1.28,0.043c3.73,0.085,6.394,0.128,7.987,0.128
		c3.046,0,5.645-0.179,7.794-0.534c2.15-0.355,4.064-0.933,5.745-1.729c0.626,1.082,1.074,2.028,1.346,2.841
		c0.271,0.812,0.405,1.56,0.405,2.241c0,1.511-0.498,2.57-1.495,3.184s-2.89,0.918-5.681,0.918c-1.366,0-3.416-0.043-6.149-0.128
		c-2.732-0.086-4.77-0.128-6.106-0.128c-3.02,0-6.037,0.07-9.056,0.213c-0.627,0.028-1.012,0.043-1.152,0.043
		c-0.997,0-1.702-0.229-2.114-0.685c-0.413-0.454-0.619-1.252-0.619-2.392c0-0.598,0.07-2.121,0.213-4.57
		c0.455-8.825,0.685-17.098,0.685-24.813c0-7.659-0.137-13.795-0.405-18.408c-0.271-4.612-0.691-8.072-1.261-10.378h5.425
		c6.663,0,13.511-0.214,20.543-0.641c1.51-0.086,2.42-0.129,2.733-0.129c2.307,0,3.887,0.257,4.74,0.77
		c0.854,0.513,1.281,1.424,1.281,2.733c0,0.739-0.149,1.572-0.448,2.498C606.123,441.116,605.66,442.148,605.034,443.287z"/>
</g>
</svg>
