<?xml version="1.0" encoding="utf-8"?>
<!-- Generator: Adobe Illustrator 22.0.1, SVG Export Plug-In . SVG Version: 6.00 Build 0)  -->
<svg version="1.1" id="Layer_1" xmlns="http://www.w3.org/2000/svg" xmlns:xlink="http://www.w3.org/1999/xlink" x="0px" y="0px"
	 viewBox="0 0 25.3 17.6" style="enable-background:new 0 0 25.3 17.6;" xml:space="preserve">
<style type="text/css">
	.st0{fill-rule:evenodd;clip-rule:evenodd;fill:#ED4848;}
</style>
<path class="st0" d="M13.4,17.6c-3.3-0.1-5.8-0.2-8.4-0.3c-0.7,0-1.4-0.1-2.1-0.3c-1.4-0.3-2.4-1.5-2.6-2.9C-0.1,11.3,0,8.4,0.1,5.6
	c0-0.8,0.2-1.6,0.3-2.4C0.5,1.7,2,0.6,3.5,0.4C6.8,0,10.1,0,13.4,0c2.2,0,4.4,0.1,6.7,0.2c0.7,0,1.4,0.1,2.1,0.2
	c1.6,0.3,2.4,1.2,2.7,2.8c0.4,2.1,0.5,4.2,0.4,6.3c-0.1,1.6-0.2,3.2-0.4,4.7c-0.2,1.6-1.4,2.7-3,2.8C18.8,17.3,15.7,17.5,13.4,17.6z
	 M10.3,4.9c0,2.6,0,5.2,0,7.8c2.1-1.3,4.2-2.6,6.3-3.9C14.5,7.4,12.4,6.2,10.3,4.9z"/>
</svg>
