<?xml version="1.0" encoding="utf-8"?>
<!-- Generator: Adobe Illustrator 22.0.1, SVG Export Plug-In . SVG Version: 6.00 Build 0)  -->
<svg version="1.1" id="Layer_1" xmlns="http://www.w3.org/2000/svg" xmlns:xlink="http://www.w3.org/1999/xlink" x="0px" y="0px"
	 viewBox="0 0 22.3 18.2" style="enable-background:new 0 0 22.3 18.2;" xml:space="preserve">
<style type="text/css">
	.st0{fill-rule:evenodd;clip-rule:evenodd;fill:#ED4848;}
</style>
<path class="st0" d="M22.3,2.2c-0.2,0.2-0.3,0.5-0.5,0.7c-0.5,0.6-1,1.1-1.6,1.5C20.1,4.5,20,4.6,20,4.7c0.1,3-0.8,5.8-2.6,8.2
	c-1.4,2-3.2,3.4-5.5,4.3c-1.8,0.7-3.6,1-5.5,0.9c-1.7-0.1-3.4-0.4-4.9-1.2C1,16.8,0.5,16.5,0,16.2c2.5,0.2,4.7-0.4,6.7-1.9
	C4.6,14.1,3.2,13,2.4,11c0.7,0.1,1.4,0.1,2.1-0.1c-1.1-0.3-2-0.8-2.6-1.6c-0.7-0.8-1-1.8-1-2.9c0.6,0.3,1.3,0.5,2,0.5
	C1.7,6.1,1.1,5,0.9,3.7C0.8,2.7,1,1.7,1.5,0.8C4,3.8,7.1,5.4,10.9,5.6c0-0.3-0.1-0.5-0.1-0.8c-0.1-1,0.2-2,0.8-2.8
	c1.1-1.5,2.5-2.2,4.4-2c1,0.1,1.9,0.5,2.6,1.3c0.1,0.1,0.2,0.1,0.3,0.1c0.9-0.2,1.7-0.5,2.5-0.9c0.1,0,0.1-0.1,0.2-0.1
	c-0.2,0.5-0.4,1-0.7,1.4c-0.3,0.4-0.7,0.8-1.2,1.1c0,0,0,0,0,0.1c0.4-0.1,0.8-0.2,1.2-0.3C21.5,2.5,21.9,2.3,22.3,2.2z"/>
</svg>
