<?xml version="1.0" encoding="utf-8"?>
<!-- Generator: Adobe Illustrator 22.0.1, SVG Export Plug-In . SVG Version: 6.00 Build 0)  -->
<svg version="1.1" id="Layer_1" xmlns="http://www.w3.org/2000/svg" xmlns:xlink="http://www.w3.org/1999/xlink" x="0px" y="0px"
	 viewBox="0 0 190.1 24" style="enable-background:new 0 0 190.1 24;" xml:space="preserve">
<style type="text/css">
	.st0{fill:none;}
	.st1{fill:#ED4848;}
</style>
<g>
	<g>
		<path d="M4.6,0.3v18.5h9.2v4.6H0V0.3H4.6z"/>
		<path d="M44.8,3.7c2.3,2.3,3.4,5,3.4,8.2c0,3.2-1.1,5.9-3.4,8.2c-2.3,2.3-5,3.4-8.2,3.4c-3.2,0-5.9-1.1-8.2-3.4
			c-2.3-2.3-3.4-5-3.4-8.2c0-3.2,1.1-5.9,3.4-8.2c2.3-2.3,5-3.4,8.2-3.4C39.8,0.3,42.5,1.4,44.8,3.7z M31.7,7c-1.4,1.4-2,3-2,4.9
			c0,1.9,0.7,3.6,2,4.9c1.4,1.4,3,2,4.9,2c1.9,0,3.5-0.7,4.9-2c1.4-1.4,2-3,2-4.9c0-1.9-0.7-3.5-2-4.9c-1.4-1.4-3-2-4.9-2
			C34.7,4.9,33,5.6,31.7,7z"/>
		<path d="M74.6,1.2c1.4,0.6,2.6,1.4,3.7,2.5L75,7c-1.4-1.4-3-2-4.9-2c-1.9,0-3.5,0.7-4.9,2c-1.4,1.4-2,3-2,4.9c0,1.9,0.7,3.6,2,4.9
			c1.4,1.4,3,2,4.9,2c1.9,0,3.6-0.7,4.9-2l3.3,3.3c-1.1,1.1-2.3,1.9-3.7,2.5c-1.4,0.6-2.9,0.9-4.5,0.9c-3.2,0-5.9-1.1-8.2-3.4
			c-2.3-2.3-3.4-5-3.4-8.2c0-3.2,1.1-5.9,3.4-8.2c2.3-2.3,5-3.4,8.2-3.4C71.7,0.3,73.2,0.6,74.6,1.2z"/>
		<path d="M124.1,0.3v18.5h9.2v4.6h-13.9V0.3H124.1z"/>
		<path d="M176.9,0.3l4,7.3l4-7.3h5.3l-7,12.8v10.4h-4.6V13.1l-6.9-12.8H176.9z"/>
	</g>
	<path class="st0" d="M155.9,8.4c0-0.9-0.3-1.7-1-2.4c-0.7-0.7-1.5-1-2.5-1h-4.5v3.4V12h4.5c1,0,1.8-0.4,2.5-1.1
		C155.6,10.2,155.9,9.4,155.9,8.4z"/>
	<path d="M156.3,15.7c1.1-0.6,2-1.5,2.8-2.6c1-1.4,1.5-3,1.5-4.7c0-2.2-0.8-4.3-2.4-5.9C156.6,1,154.7,0,152.5,0H149h-6.1v8.4v8.1
		V24h5v-8h1.7h1.4l5.2,8h5.7L156.3,15.7z M154.9,10.9c-0.7,0.7-1.5,1.1-2.5,1.1h-4.5V8.4V5h4.5c1,0,1.8,0.3,2.5,1
		c0.7,0.7,1,1.5,1,2.5C155.9,9.4,155.6,10.3,154.9,10.9z"/>
	<g>
		<g>
			<polygon points="105.1,15 100.4,15 104.7,24 109.7,24 			"/>
			<polygon points="86,24 90.9,24 95.4,15 90.6,15 			"/>
		</g>
		<polygon class="st1" points="97.9,0.6 90.6,15 95.4,15 97.9,10.1 97.9,9.9 98,9.8 98,9.8 98,10 100.4,15 105.1,15 		"/>
	</g>
</g>
</svg>
