<?xml version="1.0" encoding="utf-8"?>
<!-- Generator: Adobe Illustrator 22.0.1, SVG Export Plug-In . SVG Version: 6.00 Build 0)  -->
<svg version="1.1" id="Layer_1" xmlns="http://www.w3.org/2000/svg" xmlns:xlink="http://www.w3.org/1999/xlink" x="0px" y="0px"
	 viewBox="0 0 167.6 22.2" style="enable-background:new 0 0 167.6 22.2;" xml:space="preserve">
<style type="text/css">
	.st0{fill:#FFFFFF;}
	.st1{fill:#ED4848;}
</style>
<g>
	<g>
		<path class="st0" d="M4.1,0.8v16.3h8.2v4.1H0V0.8H4.1z"/>
		<path class="st0" d="M39.5,3.8c2,2,3,4.4,3,7.2c0,2.8-1,5.2-3,7.2c-2,2-4.4,3-7.2,3c-2.8,0-5.2-1-7.2-3c-2-2-3-4.4-3-7.2
			c0-2.8,1-5.2,3-7.2c2-2,4.4-3,7.2-3C35.1,0.8,37.5,1.8,39.5,3.8z M27.9,6.7c-1.2,1.2-1.8,2.6-1.8,4.3c0,1.7,0.6,3.1,1.8,4.3
			c1.2,1.2,2.6,1.8,4.3,1.8c1.7,0,3.1-0.6,4.3-1.8c1.2-1.2,1.8-2.6,1.8-4.3c0-1.7-0.6-3.1-1.8-4.3c-1.2-1.2-2.6-1.8-4.3-1.8
			C30.6,4.9,29.1,5.5,27.9,6.7z"/>
		<path class="st0" d="M65.8,1.6C67,2.1,68.1,2.9,69,3.8l-2.9,2.9c-1.2-1.2-2.7-1.8-4.3-1.8c-1.7,0-3.1,0.6-4.3,1.8
			c-1.2,1.2-1.8,2.6-1.8,4.3c0,1.7,0.6,3.1,1.8,4.3c1.2,1.2,2.6,1.8,4.3,1.8c1.7,0,3.1-0.6,4.3-1.8l2.9,2.9c-0.9,0.9-2,1.7-3.3,2.2
			c-1.2,0.5-2.6,0.8-4,0.8c-2.8,0-5.2-1-7.2-3c-2-2-3-4.4-3-7.2c0-2.8,1-5.2,3-7.2c2-2,4.4-3,7.2-3C63.2,0.8,64.5,1.1,65.8,1.6z"/>
		<path class="st0" d="M109.4,0.8v16.3h8.2v4.1h-12.2V0.8H109.4z"/>
		<path class="st0" d="M155.9,0.8l3.5,6.5l3.5-6.5h4.6L161.5,12v9.2h-4.1V12l-6.1-11.3H155.9z"/>
	</g>
	<path class="st0" d="M137.8,14.6c1-0.5,1.8-1.4,2.4-2.4c0.9-1.2,1.3-2.7,1.3-4.2c0-2-0.7-4.1-2.1-5.5c-1.4-1.4-3.1-2.5-5.1-2.5
		h-3.1h-5.5v7.9v7.1v7.1h4.4v-7.8h1.7h1.2l4.6,7.8h5L137.8,14.6z M136.6,10.2c-0.6,0.6-1.3,0.9-2.2,0.9h-4.2V7.9V4.4h4.2
		c0.8,0,1.6,0.5,2.2,1.1c0.6,0.6,0.9,1.5,0.9,2.3C137.5,8.7,137.2,9.6,136.6,10.2z"/>
	<g>
		<g>
			<polygon class="st0" points="92.6,13.1 88.5,13.1 92.3,22.1 96.7,22.1 			"/>
			<polygon class="st0" points="75.8,22.1 80.2,22.1 84.1,13.1 79.9,13.1 			"/>
		</g>
		<polygon class="st1" points="86.3,0.4 79.9,13.1 84.1,13.1 86.3,9.1 86.3,9.1 86.4,9.1 86.4,9.1 86.4,9 88.5,13.1 92.6,13.1 		"/>
	</g>
</g>
</svg>
